<svg width="361" height="131" viewBox="0 0 361 131" fill="none" xmlns="http://www.w3.org/2000/svg">
<rect width="361" height="131" rx="10" fill="#FEFEFE"/>
<circle cx="33.5" cy="31.5" r="21.5" fill="#FBFBFB"/>
<path d="M28.9112 39L24.9339 24.4545H26.7237L29.7635 36.3011H29.9055L33.0021 24.4545H34.9908L38.0874 36.3011H38.2294L41.2692 24.4545H43.0589L39.0817 39H37.2635L34.0533 27.4091H33.9396L30.7294 39H28.9112Z" fill="black"/>
<path d="M77.0824 30L74.2983 19.8182H75.5511L77.679 28.1108H77.7784L79.946 19.8182H81.3381L83.5057 28.1108H83.6051L85.733 19.8182H86.9858L84.2017 30H82.929L80.6818 21.8864H80.6023L78.3551 30H77.0824ZM90.8537 30.1591C90.1179 30.1591 89.4832 29.9967 88.9496 29.6719C88.4193 29.3438 88.0099 28.8864 87.7216 28.2997C87.4366 27.7098 87.294 27.0237 87.294 26.2415C87.294 25.4593 87.4366 24.7699 87.7216 24.1733C88.0099 23.5734 88.411 23.1061 88.9247 22.7713C89.4418 22.4332 90.045 22.2642 90.7344 22.2642C91.1321 22.2642 91.5249 22.3305 91.9126 22.4631C92.3004 22.5956 92.6534 22.8111 92.9716 23.1094C93.2898 23.4044 93.5433 23.7955 93.7322 24.2827C93.9212 24.7699 94.0156 25.3698 94.0156 26.0824V26.5795H88.1293V25.5653H92.8224C92.8224 25.1345 92.7363 24.75 92.5639 24.4119C92.3949 24.0739 92.1529 23.8071 91.8381 23.6115C91.5265 23.416 91.1586 23.3182 90.7344 23.3182C90.267 23.3182 89.8627 23.4342 89.5213 23.6662C89.1832 23.8949 88.9231 24.1932 88.7408 24.5611C88.5585 24.929 88.4673 25.3234 88.4673 25.7443V26.4205C88.4673 26.9972 88.5668 27.486 88.7656 27.8871C88.9678 28.2848 89.2479 28.5881 89.6058 28.7969C89.9638 29.0024 90.3797 29.1051 90.8537 29.1051C91.1619 29.1051 91.4403 29.062 91.6889 28.9759C91.9408 28.8864 92.1579 28.7538 92.3402 28.5781C92.5225 28.3991 92.6634 28.1771 92.7628 27.9119L93.8963 28.2301C93.777 28.6146 93.5765 28.9527 93.2947 29.2443C93.013 29.5327 92.665 29.758 92.2507 29.9205C91.8364 30.0795 91.3707 30.1591 90.8537 30.1591ZM96.9737 19.8182V30H95.8004V19.8182H96.9737ZM102.225 30.1591C101.509 30.1591 100.893 29.9901 100.376 29.652C99.8585 29.3139 99.4608 28.8482 99.1824 28.255C98.9039 27.6617 98.7647 26.9839 98.7647 26.2216C98.7647 25.446 98.9073 24.7616 99.1923 24.1683C99.4806 23.5717 99.8817 23.1061 100.395 22.7713C100.912 22.4332 101.516 22.2642 102.205 22.2642C102.742 22.2642 103.226 22.3636 103.657 22.5625C104.088 22.7614 104.441 23.0398 104.716 23.3977C104.991 23.7557 105.162 24.1733 105.228 24.6506H104.055C103.965 24.3026 103.766 23.9943 103.458 23.7259C103.153 23.4541 102.742 23.3182 102.225 23.3182C101.768 23.3182 101.367 23.4375 101.022 23.6761C100.68 23.9115 100.414 24.2446 100.221 24.6754C100.032 25.103 99.938 25.6051 99.938 26.1818C99.938 26.7718 100.031 27.2855 100.216 27.723C100.405 28.1605 100.671 28.5002 101.012 28.7422C101.357 28.9841 101.761 29.1051 102.225 29.1051C102.53 29.1051 102.807 29.0521 103.055 28.946C103.304 28.84 103.514 28.6875 103.687 28.4886C103.859 28.2898 103.982 28.0511 104.055 27.7727H105.228C105.162 28.2235 104.997 28.6295 104.736 28.9908C104.477 29.3487 104.134 29.6338 103.706 29.8459C103.282 30.0547 102.788 30.1591 102.225 30.1591ZM110.045 30.1591C109.356 30.1591 108.751 29.995 108.231 29.6669C107.714 29.3388 107.309 28.8797 107.018 28.2898C106.729 27.6998 106.585 27.0104 106.585 26.2216C106.585 25.4261 106.729 24.7318 107.018 24.1385C107.309 23.5452 107.714 23.0845 108.231 22.7564C108.751 22.4283 109.356 22.2642 110.045 22.2642C110.735 22.2642 111.338 22.4283 111.855 22.7564C112.375 23.0845 112.78 23.5452 113.068 24.1385C113.36 24.7318 113.506 25.4261 113.506 26.2216C113.506 27.0104 113.36 27.6998 113.068 28.2898C112.78 28.8797 112.375 29.3388 111.855 29.6669C111.338 29.995 110.735 30.1591 110.045 30.1591ZM110.045 29.1051C110.569 29.1051 111 28.9709 111.338 28.7024C111.676 28.4339 111.926 28.081 112.089 27.6435C112.251 27.206 112.332 26.732 112.332 26.2216C112.332 25.7112 112.251 25.2356 112.089 24.7947C111.926 24.3539 111.676 23.9976 111.338 23.7259C111 23.4541 110.569 23.3182 110.045 23.3182C109.522 23.3182 109.091 23.4541 108.753 23.7259C108.415 23.9976 108.164 24.3539 108.002 24.7947C107.84 25.2356 107.758 25.7112 107.758 26.2216C107.758 26.732 107.84 27.206 108.002 27.6435C108.164 28.081 108.415 28.4339 108.753 28.7024C109.091 28.9709 109.522 29.1051 110.045 29.1051ZM115.297 30V22.3636H116.43V23.5568H116.529C116.689 23.1491 116.945 22.8326 117.3 22.6072C117.655 22.3786 118.081 22.2642 118.578 22.2642C119.082 22.2642 119.501 22.3786 119.836 22.6072C120.174 22.8326 120.437 23.1491 120.626 23.5568H120.706C120.901 23.1624 121.194 22.8492 121.586 22.6172C121.977 22.3819 122.446 22.2642 122.993 22.2642C123.675 22.2642 124.234 22.478 124.668 22.9055C125.102 23.3298 125.319 23.991 125.319 24.8892V30H124.146V24.8892C124.146 24.3258 123.992 23.9231 123.684 23.6811C123.375 23.4392 123.012 23.3182 122.595 23.3182C122.058 23.3182 121.642 23.4806 121.347 23.8054C121.052 24.1269 120.904 24.5346 120.904 25.0284V30H119.711V24.7699C119.711 24.3357 119.57 23.986 119.289 23.7209C119.007 23.4524 118.644 23.3182 118.2 23.3182C117.895 23.3182 117.61 23.3994 117.345 23.5618C117.083 23.7242 116.871 23.9496 116.708 24.2379C116.549 24.523 116.47 24.8527 116.47 25.2273V30H115.297ZM130.666 30.1591C129.93 30.1591 129.296 29.9967 128.762 29.6719C128.232 29.3438 127.822 28.8864 127.534 28.2997C127.249 27.7098 127.107 27.0237 127.107 26.2415C127.107 25.4593 127.249 24.7699 127.534 24.1733C127.822 23.5734 128.223 23.1061 128.737 22.7713C129.254 22.4332 129.857 22.2642 130.547 22.2642C130.945 22.2642 131.337 22.3305 131.725 22.4631C132.113 22.5956 132.466 22.8111 132.784 23.1094C133.102 23.4044 133.356 23.7955 133.545 24.2827C133.734 24.7699 133.828 25.3698 133.828 26.0824V26.5795H127.942V25.5653H132.635C132.635 25.1345 132.549 24.75 132.376 24.4119C132.207 24.0739 131.965 23.8071 131.651 23.6115C131.339 23.416 130.971 23.3182 130.547 23.3182C130.08 23.3182 129.675 23.4342 129.334 23.6662C128.996 23.8949 128.736 24.1932 128.553 24.5611C128.371 24.929 128.28 25.3234 128.28 25.7443V26.4205C128.28 26.9972 128.379 27.486 128.578 27.8871C128.78 28.2848 129.06 28.5881 129.418 28.7969C129.776 29.0024 130.192 29.1051 130.666 29.1051C130.974 29.1051 131.253 29.062 131.501 28.9759C131.753 28.8864 131.97 28.7538 132.153 28.5781C132.335 28.3991 132.476 28.1771 132.575 27.9119L133.709 28.2301C133.589 28.6146 133.389 28.9527 133.107 29.2443C132.826 29.5327 132.478 29.758 132.063 29.9205C131.649 30.0795 131.183 30.1591 130.666 30.1591ZM139.71 30V19.8182H143.269C143.978 19.8182 144.563 19.9408 145.024 20.1861C145.485 20.428 145.828 20.7545 146.053 21.1655C146.279 21.5732 146.391 22.0256 146.391 22.5227C146.391 22.9602 146.313 23.3215 146.158 23.6065C146.005 23.8916 145.803 24.117 145.551 24.2827C145.303 24.4484 145.032 24.571 144.741 24.6506V24.75C145.052 24.7699 145.366 24.8793 145.68 25.0781C145.995 25.277 146.259 25.562 146.471 25.9332C146.683 26.3045 146.789 26.7585 146.789 27.2955C146.789 27.8059 146.673 28.2649 146.441 28.6726C146.209 29.0803 145.843 29.4034 145.342 29.642C144.842 29.8807 144.191 30 143.388 30H139.71ZM140.942 28.9062H143.388C144.194 28.9062 144.766 28.7505 145.104 28.4389C145.445 28.1241 145.616 27.7429 145.616 27.2955C145.616 26.9508 145.528 26.6326 145.352 26.3409C145.177 26.0459 144.926 25.8106 144.602 25.6349C144.277 25.456 143.892 25.3665 143.448 25.3665H140.942V28.9062ZM140.942 24.2926H143.229C143.601 24.2926 143.935 24.2197 144.234 24.0739C144.535 23.928 144.774 23.7225 144.95 23.4574C145.129 23.1922 145.218 22.8807 145.218 22.5227C145.218 22.0753 145.062 21.6958 144.751 21.3842C144.439 21.0694 143.945 20.9119 143.269 20.9119H140.942V24.2926ZM151.758 30.1591C151.069 30.1591 150.464 29.995 149.944 29.6669C149.426 29.3388 149.022 28.8797 148.73 28.2898C148.442 27.6998 148.298 27.0104 148.298 26.2216C148.298 25.4261 148.442 24.7318 148.73 24.1385C149.022 23.5452 149.426 23.0845 149.944 22.7564C150.464 22.4283 151.069 22.2642 151.758 22.2642C152.448 22.2642 153.051 22.4283 153.568 22.7564C154.088 23.0845 154.493 23.5452 154.781 24.1385C155.073 24.7318 155.218 25.4261 155.218 26.2216C155.218 27.0104 155.073 27.6998 154.781 28.2898C154.493 28.8797 154.088 29.3388 153.568 29.6669C153.051 29.995 152.448 30.1591 151.758 30.1591ZM151.758 29.1051C152.282 29.1051 152.713 28.9709 153.051 28.7024C153.389 28.4339 153.639 28.081 153.801 27.6435C153.964 27.206 154.045 26.732 154.045 26.2216C154.045 25.7112 153.964 25.2356 153.801 24.7947C153.639 24.3539 153.389 23.9976 153.051 23.7259C152.713 23.4541 152.282 23.3182 151.758 23.3182C151.234 23.3182 150.804 23.4541 150.466 23.7259C150.127 23.9976 149.877 24.3539 149.715 24.7947C149.552 25.2356 149.471 25.7112 149.471 26.2216C149.471 26.732 149.552 27.206 149.715 27.6435C149.877 28.081 150.127 28.4339 150.466 28.7024C150.804 28.9709 151.234 29.1051 151.758 29.1051ZM160.33 22.3636V23.358H156.373V22.3636H160.33ZM157.526 20.5341H158.7V27.8125C158.7 28.1439 158.748 28.3925 158.844 28.5582C158.943 28.7206 159.069 28.83 159.222 28.8864C159.378 28.9394 159.542 28.9659 159.714 28.9659C159.843 28.9659 159.949 28.9593 160.032 28.946C160.115 28.9295 160.181 28.9162 160.231 28.9062L160.47 29.9602C160.39 29.9901 160.279 30.0199 160.137 30.0497C159.994 30.0829 159.813 30.0994 159.595 30.0994C159.263 30.0994 158.938 30.0282 158.62 29.8857C158.305 29.7431 158.044 29.526 157.835 29.2344C157.629 28.9427 157.526 28.5748 157.526 28.1307V20.5341Z" fill="black"/>
<rect x="74" y="41" width="4" height="82" rx="2" fill="#F7F7F7"/>
<path d="M90.324 54.472H94.958V55.452H90.324V54.472ZM90.324 55.998H94.958V56.978H90.324V55.998ZM90.31 57.524H95.308V58.658H90.31V57.524ZM88.49 46.94H95.658V48.158H88.49V46.94ZM92.032 53.576H93.432V58.098H92.032V53.576ZM89.918 46.128H91.374V48.844H89.918V46.128ZM92.69 46.128H94.174V48.844H92.69V46.128ZM89.918 50.048V50.874H90.646V50.048H89.918ZM88.826 49.068H91.808V51.868H88.826V49.068ZM93.32 50.048V50.874H94.118V50.048H93.32ZM92.228 49.068H95.28V51.868H92.228V49.068ZM90.884 52.82H95.336V53.926H90.884V59.218H89.47V54.164L90.716 52.82H90.884ZM92.494 51.784L93.964 52.106C93.628 52.694 93.306 53.268 93.068 53.674L91.948 53.352C92.158 52.89 92.382 52.246 92.494 51.784ZM89.974 51.728L91.346 52.092C90.842 53.716 90.002 55.382 89.036 56.446C88.882 56.124 88.448 55.424 88.196 55.116C88.966 54.276 89.61 53.016 89.974 51.728ZM96.568 48.648H100.502V50.16H96.568V48.648ZM98.304 49.236H99.102V51.644C99.088 53.002 99.536 56.096 101.636 57.804C101.342 58.154 100.88 58.854 100.642 59.26C99.13 58.056 98.444 55.69 98.304 54.5C98.122 55.718 97.324 58.014 95.658 59.26C95.476 58.896 95.014 58.182 94.734 57.874C97.058 56.138 97.506 53.03 97.492 51.644V49.236H98.304ZM96.47 46.086L98.122 46.324C97.8 48.844 97.198 51.308 96.218 52.862C95.938 52.596 95.238 52.078 94.846 51.854C95.756 50.51 96.246 48.312 96.47 46.086ZM99.942 48.648H100.18L100.418 48.55L101.524 48.942C101.384 50.314 101.118 51.868 100.782 52.918L99.592 52.246C99.76 51.378 99.886 50.006 99.942 48.9V48.648ZM105.528 51.574V56.726H103.96V53.128H102.504V51.574H105.528ZM105.528 56.082C106.074 57.034 107.096 57.44 108.538 57.51C110.274 57.58 113.718 57.538 115.706 57.384C115.524 57.748 115.272 58.49 115.202 58.952C113.41 59.036 110.302 59.064 108.552 58.994C106.844 58.924 105.696 58.504 104.856 57.412C104.324 57.972 103.764 58.504 103.106 59.134L102.308 57.524C102.868 57.132 103.54 56.6 104.128 56.082H105.528ZM102.42 47.248L103.736 46.422C104.478 47.08 105.346 48.032 105.724 48.732L104.296 49.67C103.974 48.984 103.134 47.962 102.42 47.248ZM110.47 46.968H114.334V48.382H111.996V57.09H110.47V46.968ZM106.676 47.094L108.216 47.5V54.724H106.676V47.094ZM113.48 46.968H115.034V54.108C115.034 54.794 114.908 55.186 114.474 55.438C114.04 55.676 113.452 55.69 112.64 55.69C112.57 55.284 112.374 54.654 112.164 54.29C112.64 54.304 113.116 54.304 113.27 54.29C113.424 54.29 113.48 54.234 113.48 54.08V46.968ZM109.35 46.114L110.512 47.36C109.602 47.892 108.524 48.354 107.614 48.676C107.53 48.34 107.306 47.808 107.11 47.486C107.908 47.122 108.804 46.576 109.35 46.114ZM105.864 54.29C106.928 54.066 108.482 53.702 109.98 53.31L110.162 54.738C108.86 55.102 107.432 55.48 106.298 55.774L105.864 54.29ZM123.91 52.512H125.604V57.062C125.604 57.566 125.674 57.636 126.136 57.636C126.346 57.636 127.172 57.636 127.424 57.636C127.886 57.636 127.956 57.328 128.026 55.41C128.376 55.69 129.118 55.984 129.552 56.096C129.384 58.546 128.964 59.218 127.564 59.218C127.256 59.218 126.178 59.218 125.884 59.218C124.302 59.218 123.91 58.686 123.91 57.062V52.512ZM120.13 52.582H121.922C121.698 55.648 121.124 58.014 117.344 59.274C117.162 58.84 116.686 58.154 116.322 57.804C119.654 56.81 119.948 55.004 120.13 52.582ZM117.694 47.276L119.206 46.716C119.85 47.766 120.536 49.166 120.774 50.104L119.136 50.762C118.94 49.838 118.31 48.382 117.694 47.276ZM126.752 46.604L128.544 47.22C127.928 48.466 127.2 49.81 126.612 50.678L125.142 50.118C125.716 49.194 126.402 47.724 126.752 46.604ZM116.686 51.252H129.342V52.834H116.686V51.252ZM122.09 46.114H123.798V51.896H122.09V46.114ZM130.84 46.912H136.09V48.41H132.282V58.616H130.84V46.912ZM131.582 49.922H135.95V54.528H131.582V53.044H134.494V51.406H131.582V49.922ZM133.206 47.57H134.662V50.65H133.206V47.57ZM133.206 53.926H134.662V57.104H133.206V53.926ZM131.54 56.39H136.132V57.888H131.54V56.39ZM137.322 47.458H143.328V48.928H137.322V47.458ZM136.874 57.118H138.974V58.448H136.874V57.118ZM140.57 57.118H142.698V58.448H140.57V57.118ZM137.434 46.086L139.03 46.478C138.54 48.158 137.714 49.922 136.832 51.014C136.58 50.72 135.95 50.132 135.6 49.866C136.398 48.956 137.07 47.514 137.434 46.086ZM138.694 50.916V51.91H141.116V50.916H138.694ZM137.294 49.642H142.586V53.198H137.294V49.642ZM136.37 53.856H139.59V59.05H138.358V55.172H137.546V59.204H136.37V53.856ZM140.066 53.856H143.384V59.106H142.124V55.172H141.284V59.246H140.066V53.856ZM150.272 54.402L149.908 49.614L149.838 47.528H152.148L152.078 49.614L151.714 54.402H150.272ZM151 58.14C150.272 58.14 149.754 57.622 149.754 56.894C149.754 56.166 150.286 55.662 151 55.662C151.7 55.662 152.232 56.166 152.232 56.894C152.232 57.622 151.7 58.14 151 58.14Z" fill="black"/>
<rect x="88" y="69" width="188" height="8" fill="#FBFBFB"/>
<rect x="284" y="44" width="66" height="66" rx="10" fill="#FBFBFB"/>
<rect x="88" y="80" width="152" height="8" fill="#FBFBFB"/>
<rect x="88" y="91" width="181" height="8" fill="#FBFBFB"/>
<rect x="88" y="102" width="152" height="8" fill="#FBFBFB"/>
</svg>
