<svg width="361" height="199" viewBox="0 0 361 199" fill="none" xmlns="http://www.w3.org/2000/svg">
<rect width="361" height="199" rx="10" fill="#FEFEFE"/>
<ellipse cx="30.5" cy="31.9914" rx="21.5" ry="21.9914" fill="#FBFBFB"/>
<path d="M26.2575 39.16V24.6146H31.3427C32.3559 24.6146 33.1916 24.7898 33.8498 25.1401C34.5079 25.4858 34.998 25.9522 35.32 26.5393C35.6419 27.1217 35.8029 27.768 35.8029 28.4782C35.8029 29.1032 35.6916 29.6193 35.4691 30.0265C35.2513 30.4337 34.9625 30.7557 34.6026 30.9924C34.2475 31.2292 33.8616 31.4044 33.445 31.518V31.66C33.89 31.6884 34.3375 31.8447 34.7873 32.1288C35.2371 32.4129 35.6135 32.8201 35.9165 33.3504C36.2196 33.8807 36.3711 34.5294 36.3711 35.2964C36.3711 36.0256 36.2054 36.6813 35.8739 37.2637C35.5425 37.8461 35.0193 38.3078 34.3043 38.6487C33.5894 38.9896 32.659 39.16 31.5131 39.16H26.2575ZM28.0188 37.5975H31.5131C32.6637 37.5975 33.4805 37.375 33.9634 36.9299C34.4511 36.4801 34.695 35.9356 34.695 35.2964C34.695 34.804 34.5695 34.3494 34.3185 33.9328C34.0676 33.5114 33.7101 33.1752 33.2461 32.9242C32.7821 32.6686 32.2328 32.5407 31.5984 32.5407H28.0188V37.5975ZM28.0188 31.0066H31.2859C31.8162 31.0066 32.2944 30.9025 32.7205 30.6941C33.1514 30.4858 33.4923 30.1922 33.7433 29.8134C33.9989 29.4347 34.1268 28.9896 34.1268 28.4782C34.1268 27.839 33.9042 27.2969 33.4592 26.8518C33.0141 26.402 32.3086 26.1771 31.3427 26.1771H28.0188V31.0066Z" fill="black"/>
<path d="M71.6761 20.9119V19.8182H79.3125V20.9119H76.1108V30H74.8778V20.9119H71.6761ZM81.0563 30V22.3636H82.2296V30H81.0563ZM81.6529 21.0909C81.4242 21.0909 81.227 21.013 81.0613 20.8572C80.8989 20.7015 80.8176 20.5142 80.8176 20.2955C80.8176 20.0767 80.8989 19.8894 81.0613 19.7337C81.227 19.5779 81.4242 19.5 81.6529 19.5C81.8816 19.5 82.0771 19.5779 82.2395 19.7337C82.4052 19.8894 82.4881 20.0767 82.4881 20.2955C82.4881 20.5142 82.4052 20.7015 82.2395 20.8572C82.0771 21.013 81.8816 21.0909 81.6529 21.0909ZM87.4808 30.1591C86.7649 30.1591 86.1484 29.9901 85.6314 29.652C85.1143 29.3139 84.7166 28.8482 84.4382 28.255C84.1598 27.6617 84.0206 26.9839 84.0206 26.2216C84.0206 25.446 84.1631 24.7616 84.4482 24.1683C84.7365 23.5717 85.1375 23.1061 85.6513 22.7713C86.1683 22.4332 86.7715 22.2642 87.4609 22.2642C87.9979 22.2642 88.4818 22.3636 88.9126 22.5625C89.3435 22.7614 89.6965 23.0398 89.9716 23.3977C90.2467 23.7557 90.4174 24.1733 90.4837 24.6506H89.3104C89.2209 24.3026 89.022 23.9943 88.7138 23.7259C88.4089 23.4541 87.9979 23.3182 87.4808 23.3182C87.0234 23.3182 86.6224 23.4375 86.2777 23.6761C85.9363 23.9115 85.6695 24.2446 85.4773 24.6754C85.2884 25.103 85.1939 25.6051 85.1939 26.1818C85.1939 26.7718 85.2867 27.2855 85.4723 27.723C85.6612 28.1605 85.9264 28.5002 86.2678 28.7422C86.6125 28.9841 87.0168 29.1051 87.4808 29.1051C87.7857 29.1051 88.0625 29.0521 88.3111 28.946C88.5597 28.84 88.7701 28.6875 88.9425 28.4886C89.1148 28.2898 89.2375 28.0511 89.3104 27.7727H90.4837C90.4174 28.2235 90.2533 28.6295 89.9915 28.9908C89.733 29.3487 89.3899 29.6338 88.9624 29.8459C88.5381 30.0547 88.0443 30.1591 87.4808 30.1591ZM93.2926 27.2159L93.2727 25.7642H93.5114L96.8523 22.3636H98.304L94.7443 25.9631H94.6449L93.2926 27.2159ZM92.1989 30V19.8182H93.3722V30H92.1989ZM97.0511 30L94.0682 26.2216L94.9034 25.4062L98.5426 30H97.0511ZM102.701 30.1591C101.966 30.1591 101.331 29.9967 100.797 29.6719C100.267 29.3438 99.8576 28.8864 99.5692 28.2997C99.2842 27.7098 99.1417 27.0237 99.1417 26.2415C99.1417 25.4593 99.2842 24.7699 99.5692 24.1733C99.8576 23.5734 100.259 23.1061 100.772 22.7713C101.289 22.4332 101.893 22.2642 102.582 22.2642C102.98 22.2642 103.373 22.3305 103.76 22.4631C104.148 22.5956 104.501 22.8111 104.819 23.1094C105.137 23.4044 105.391 23.7955 105.58 24.2827C105.769 24.7699 105.863 25.3698 105.863 26.0824V26.5795H99.9769V25.5653H104.67C104.67 25.1345 104.584 24.75 104.412 24.4119C104.243 24.0739 104.001 23.8071 103.686 23.6115C103.374 23.416 103.006 23.3182 102.582 23.3182C102.115 23.3182 101.71 23.4342 101.369 23.6662C101.031 23.8949 100.771 24.1932 100.588 24.5611C100.406 24.929 100.315 25.3234 100.315 25.7443V26.4205C100.315 26.9972 100.414 27.486 100.613 27.8871C100.815 28.2848 101.096 28.5881 101.453 28.7969C101.811 29.0024 102.227 29.1051 102.701 29.1051C103.01 29.1051 103.288 29.062 103.537 28.9759C103.788 28.8864 104.006 28.7538 104.188 28.5781C104.37 28.3991 104.511 28.1771 104.61 27.9119L105.744 28.2301C105.625 28.6146 105.424 28.9527 105.142 29.2443C104.861 29.5327 104.513 29.758 104.098 29.9205C103.684 30.0795 103.218 30.1591 102.701 30.1591ZM110.969 22.3636V23.358H107.012V22.3636H110.969ZM108.165 20.5341H109.338V27.8125C109.338 28.1439 109.386 28.3925 109.483 28.5582C109.582 28.7206 109.708 28.83 109.86 28.8864C110.016 28.9394 110.18 28.9659 110.353 28.9659C110.482 28.9659 110.588 28.9593 110.671 28.946C110.754 28.9295 110.82 28.9162 110.87 28.9062L111.108 29.9602C111.029 29.9901 110.918 30.0199 110.775 30.0497C110.633 30.0829 110.452 30.0994 110.233 30.0994C109.902 30.0994 109.577 30.0282 109.259 29.8857C108.944 29.7431 108.682 29.526 108.473 29.2344C108.268 28.9427 108.165 28.5748 108.165 28.1307V20.5341ZM116.831 30V19.8182H120.39C121.1 19.8182 121.685 19.9408 122.145 20.1861C122.606 20.428 122.949 20.7545 123.174 21.1655C123.4 21.5732 123.512 22.0256 123.512 22.5227C123.512 22.9602 123.435 23.3215 123.279 23.6065C123.126 23.8916 122.924 24.117 122.672 24.2827C122.424 24.4484 122.154 24.571 121.862 24.6506V24.75C122.173 24.7699 122.487 24.8793 122.801 25.0781C123.116 25.277 123.38 25.562 123.592 25.9332C123.804 26.3045 123.91 26.7585 123.91 27.2955C123.91 27.8059 123.794 28.2649 123.562 28.6726C123.33 29.0803 122.964 29.4034 122.463 29.642C121.963 29.8807 121.312 30 120.51 30H116.831ZM118.064 28.9062H120.51C121.315 28.9062 121.887 28.7505 122.225 28.4389C122.566 28.1241 122.737 27.7429 122.737 27.2955C122.737 26.9508 122.649 26.6326 122.473 26.3409C122.298 26.0459 122.047 25.8106 121.723 25.6349C121.398 25.456 121.013 25.3665 120.569 25.3665H118.064V28.9062ZM118.064 24.2926H120.35C120.722 24.2926 121.056 24.2197 121.355 24.0739C121.656 23.928 121.895 23.7225 122.071 23.4574C122.25 23.1922 122.339 22.8807 122.339 22.5227C122.339 22.0753 122.183 21.6958 121.872 21.3842C121.56 21.0694 121.066 20.9119 120.39 20.9119H118.064V24.2926ZM128.879 30.1591C128.19 30.1591 127.585 29.995 127.065 29.6669C126.548 29.3388 126.143 28.8797 125.852 28.2898C125.563 27.6998 125.419 27.0104 125.419 26.2216C125.419 25.4261 125.563 24.7318 125.852 24.1385C126.143 23.5452 126.548 23.0845 127.065 22.7564C127.585 22.4283 128.19 22.2642 128.879 22.2642C129.569 22.2642 130.172 22.4283 130.689 22.7564C131.209 23.0845 131.614 23.5452 131.902 24.1385C132.194 24.7318 132.339 25.4261 132.339 26.2216C132.339 27.0104 132.194 27.6998 131.902 28.2898C131.614 28.8797 131.209 29.3388 130.689 29.6669C130.172 29.995 129.569 30.1591 128.879 30.1591ZM128.879 29.1051C129.403 29.1051 129.834 28.9709 130.172 28.7024C130.51 28.4339 130.76 28.081 130.923 27.6435C131.085 27.206 131.166 26.732 131.166 26.2216C131.166 25.7112 131.085 25.2356 130.923 24.7947C130.76 24.3539 130.51 23.9976 130.172 23.7259C129.834 23.4541 129.403 23.3182 128.879 23.3182C128.356 23.3182 127.925 23.4541 127.587 23.7259C127.249 23.9976 126.998 24.3539 126.836 24.7947C126.674 25.2356 126.592 25.7112 126.592 26.2216C126.592 26.732 126.674 27.206 126.836 27.6435C126.998 28.081 127.249 28.4339 127.587 28.7024C127.925 28.9709 128.356 29.1051 128.879 29.1051ZM137.452 22.3636V23.358H133.494V22.3636H137.452ZM134.648 20.5341H135.821V27.8125C135.821 28.1439 135.869 28.3925 135.965 28.5582C136.064 28.7206 136.19 28.83 136.343 28.8864C136.499 28.9394 136.663 28.9659 136.835 28.9659C136.964 28.9659 137.07 28.9593 137.153 28.946C137.236 28.9295 137.302 28.9162 137.352 28.9062L137.591 29.9602C137.511 29.9901 137.4 30.0199 137.258 30.0497C137.115 30.0829 136.934 30.0994 136.716 30.0994C136.384 30.0994 136.059 30.0282 135.741 29.8857C135.426 29.7431 135.165 29.526 134.956 29.2344C134.75 28.9427 134.648 28.5748 134.648 28.1307V20.5341Z" fill="black"/>
<rect x="71" y="40" width="4" height="149.337" rx="2" fill="#F7F7F7"/>
<path d="M90.208 48.746L92 49.096C90.936 50.608 89.508 51.868 87.352 52.862C87.128 52.47 86.61 51.882 86.246 51.616C88.22 50.86 89.508 49.796 90.208 48.746ZM90.6 49.684H94.786V50.944H89.452L90.6 49.684ZM94.282 49.684H94.604L94.884 49.614L96.018 50.286C94.17 53.38 90.208 55.06 86.176 55.844C86.022 55.41 85.672 54.724 85.378 54.36C89.13 53.786 92.882 52.274 94.282 49.922V49.684ZM89.928 50.636C91.552 52.456 94.814 53.576 98.594 53.94C98.216 54.332 97.754 55.088 97.516 55.564C93.666 55.032 90.474 53.66 88.472 51.28L89.928 50.636ZM88.038 54.878H96.088V59.232H94.366V56.25H89.676V59.26H88.038V54.878ZM88.864 57.454H95.206V58.826H88.864V57.454ZM91.09 46.128H92.826V48.116H91.09V46.128ZM85.966 47.262H98.034V50.356H96.312V48.774H87.604V50.356H85.966V47.262ZM100.932 46.604H104.082V48.158H100.932V46.604ZM100.932 49.782H104.138V51.336H100.932V49.782ZM106.392 51.49H111.306V53.016H106.392V51.49ZM100.918 53.03H104.082V54.612H100.918V53.03ZM100.274 46.604H101.786V51.7C101.786 53.954 101.646 57.202 100.68 59.288C100.386 59.036 99.714 58.658 99.322 58.518C100.204 56.586 100.274 53.758 100.274 51.7V46.604ZM103.144 46.604H104.698V57.44C104.698 58.196 104.572 58.672 104.124 58.952C103.676 59.232 103.074 59.26 102.164 59.26C102.122 58.826 101.926 58.07 101.716 57.65C102.22 57.664 102.738 57.664 102.906 57.65C103.074 57.65 103.144 57.594 103.144 57.412V46.604ZM110.34 46.618H111.95V49.334C111.95 50.062 111.796 50.468 111.208 50.692C110.648 50.902 109.85 50.902 108.786 50.902C108.716 50.468 108.492 49.894 108.282 49.502C108.982 49.53 109.822 49.53 110.046 49.516C110.27 49.516 110.34 49.474 110.34 49.306V46.618ZM110.844 51.49H111.124L111.39 51.448L112.384 51.77C111.768 55.41 110.2 57.86 107.904 59.246C107.708 58.868 107.274 58.294 106.938 58.014C108.912 56.964 110.368 54.598 110.844 51.77V51.49ZM108.408 52.526C109.15 54.906 110.662 56.992 112.776 57.972C112.426 58.28 111.964 58.868 111.726 59.26C109.472 58.056 107.974 55.704 107.106 52.862L108.408 52.526ZM105.482 46.618H110.732V48.172H107.064V59.26H105.482V46.618ZM119.062 50.79H120.812V59.26H119.062V50.79ZM116.71 53.268V54.024H123.332V53.268H116.71ZM116.71 51.322V52.064H123.332V51.322H116.71ZM115.058 50.034H125.054V55.312H115.058V50.034ZM113.742 56.04H126.286V57.482H113.742V56.04ZM116.052 47.668V48.48H118.026V47.668H116.052ZM114.554 46.66H119.594V49.474H114.554V46.66ZM121.918 47.668V48.48H123.934V47.668H121.918ZM120.434 46.66H125.502V49.474H120.434V46.66ZM130.43 55.452L132.18 56.11C131.312 57.202 129.954 58.364 128.862 59.078C128.512 58.742 127.784 58.182 127.336 57.916C128.484 57.328 129.716 56.362 130.43 55.452ZM135.652 56.334L137.066 55.382C138.172 56.096 139.67 57.188 140.412 57.958L138.886 59.036C138.242 58.28 136.8 57.118 135.652 56.334ZM128.666 50.566L129.828 49.488C130.99 50.146 132.544 51.196 133.3 51.98L132.04 53.198C131.354 52.414 129.87 51.294 128.666 50.566ZM135.946 52.302L137.318 51.434C138.466 52.386 139.936 53.772 140.636 54.738L139.124 55.732C138.508 54.78 137.094 53.324 135.946 52.302ZM133.062 54.206H134.854V59.26H133.062V54.206ZM127.63 53.436C130.472 53.408 134.952 53.31 138.984 53.226L138.9 54.738C134.924 54.92 130.654 55.046 127.798 55.116L127.63 53.436ZM135.988 48.564L137.626 49.432C135.806 51.294 133.384 53.282 131.494 54.542L130.164 53.674C132.082 52.4 134.504 50.286 135.988 48.564ZM132.446 47.598L134.098 48.396C133.216 49.418 132.138 50.51 131.312 51.196L129.94 50.454C130.766 49.726 131.83 48.536 132.446 47.598ZM138.298 46.24L139.488 47.668C136.38 48.298 132.096 48.578 128.456 48.62C128.414 48.186 128.218 47.5 128.064 47.108C131.676 47.038 135.792 46.758 138.298 46.24ZM149.526 46.114H151.234V48.424H149.526V46.114ZM148.7 48.718L150.45 49.194C149.988 50.244 149.47 51.392 149.05 52.12L147.664 51.672C148.042 50.874 148.49 49.628 148.7 48.718ZM151.248 50.076L152.536 49.404C153.334 50.37 154.272 51.7 154.664 52.596L153.264 53.366C152.914 52.484 152.046 51.098 151.248 50.076ZM146.656 47.752H154.37V49.25H146.656V47.752ZM146.74 51.308C148.35 51.224 150.786 51.056 153.068 50.874V52.316C150.884 52.512 148.56 52.694 146.88 52.82L146.74 51.308ZM150.8 53.212H152.368V57.244C152.368 57.65 152.396 57.692 152.592 57.692C152.676 57.692 152.97 57.692 153.068 57.692C153.278 57.692 153.32 57.468 153.362 55.956C153.67 56.222 154.342 56.474 154.762 56.586C154.622 58.616 154.244 59.176 153.236 59.176C152.998 59.176 152.536 59.176 152.298 59.176C151.066 59.176 150.8 58.686 150.8 57.244V53.212ZM143.52 46.128L144.976 46.674C144.402 47.738 143.758 48.984 143.212 49.768L142.092 49.278C142.596 48.452 143.198 47.108 143.52 46.128ZM145.13 47.78L146.488 48.396C145.48 50.006 144.108 51.952 143.044 53.17L142.078 52.624C143.114 51.35 144.402 49.292 145.13 47.78ZM141.364 49.446L142.162 48.298C142.904 48.942 143.772 49.824 144.136 50.468L143.268 51.77C142.932 51.098 142.078 50.118 141.364 49.446ZM144.71 51.126L145.816 50.664C146.362 51.602 146.894 52.834 147.062 53.646L145.872 54.178C145.718 53.366 145.242 52.092 144.71 51.126ZM141.35 52.288C142.638 52.246 144.528 52.176 146.376 52.092L146.362 53.422C144.64 53.548 142.848 53.66 141.49 53.758L141.35 52.288ZM145.018 54.612L146.194 54.234C146.544 55.032 146.908 56.082 147.062 56.782L145.83 57.216C145.69 56.516 145.326 55.438 145.018 54.612ZM141.952 54.346L143.338 54.584C143.198 55.928 142.89 57.328 142.484 58.224C142.19 58.042 141.56 57.748 141.21 57.608C141.616 56.782 141.84 55.536 141.952 54.346ZM143.52 53.03H144.99V59.274H143.52V53.03ZM148.21 53.212H149.806C149.694 56.194 149.316 58.182 146.768 59.302C146.586 58.91 146.166 58.336 145.816 58.042C147.944 57.16 148.126 55.648 148.21 53.212Z" fill="black"/>
<rect x="85" y="68.5486" width="267" height="8.18286" fill="#FBFBFB"/>
<rect x="85" y="79.8" width="152" height="8.18286" fill="#FBFBFB"/>
<rect x="85" y="91.0514" width="181" height="8.18286" fill="#FBFBFB"/>
<rect x="85" y="102.303" width="152" height="8.18286" fill="#FBFBFB"/>
<rect x="85" y="113.554" width="267" height="8.18286" fill="#FBFBFB"/>
<rect x="85" y="124.806" width="267" height="8.18286" fill="#FBFBFB"/>
<rect x="85" y="136.057" width="267" height="8.18286" fill="#FBFBFB"/>
<rect x="85" y="147.309" width="190" height="8.18286" fill="#FBFBFB"/>
<rect x="85" y="160.36" width="119" height="21.48" rx="5" fill="#EEEEEE"/>
<path d="M104.609 174.03C104.748 173.997 104.855 173.922 104.928 173.806C105.001 173.689 105.022 173.561 104.99 173.421C104.958 173.281 104.885 173.176 104.769 173.103C104.654 173.031 104.526 173.012 104.386 173.045C104.247 173.077 104.141 173.152 104.068 173.269C103.995 173.386 103.974 173.514 104.005 173.654C104.037 173.793 104.11 173.899 104.226 173.971C104.342 174.043 104.469 174.063 104.609 174.03ZM104.164 172.059C104.303 172.026 104.41 171.951 104.483 171.834C104.556 171.718 104.577 171.59 104.545 171.45C104.514 171.31 104.44 171.204 104.324 171.132C104.209 171.06 104.081 171.04 103.942 171.073C103.802 171.106 103.696 171.181 103.623 171.298C103.55 171.415 103.529 171.543 103.56 171.682C103.592 171.822 103.666 171.928 103.781 172C103.897 172.072 104.025 172.092 104.164 172.059ZM103.719 170.088C103.859 170.055 103.965 169.98 104.038 169.863C104.111 169.747 104.132 169.618 104.1 169.479C104.069 169.339 103.995 169.233 103.879 169.161C103.764 169.089 103.636 169.069 103.497 169.102C103.357 169.135 103.251 169.21 103.178 169.327C103.105 169.443 103.084 169.572 103.116 169.711C103.147 169.851 103.221 169.957 103.336 170.029C103.452 170.101 103.58 170.121 103.719 170.088ZM108.881 174.578L101.004 176.439C100.733 176.503 100.48 176.461 100.243 176.313C100.007 176.166 99.8581 175.957 99.7969 175.686L99.352 173.714C99.6228 173.65 99.8328 173.499 99.982 173.261C100.131 173.022 100.175 172.767 100.114 172.496C100.053 172.225 99.9042 172.016 99.6678 171.868C99.4314 171.721 99.1778 171.679 98.9071 171.743L98.4621 169.772C98.401 169.501 98.445 169.246 98.5943 169.008C98.7435 168.769 98.9536 168.618 99.2243 168.554L107.102 166.694C107.372 166.63 107.626 166.672 107.862 166.819C108.099 166.966 108.247 167.176 108.309 167.447L108.754 169.418C108.483 169.482 108.273 169.633 108.124 169.872C107.974 170.11 107.93 170.365 107.991 170.636C108.053 170.907 108.201 171.116 108.438 171.264C108.674 171.411 108.928 171.453 109.198 171.389L109.643 173.36C109.705 173.631 109.661 173.886 109.511 174.125C109.362 174.363 109.152 174.514 108.881 174.578ZM108.659 173.593L108.375 172.336C108.031 172.227 107.736 172.044 107.492 171.786C107.248 171.527 107.086 171.222 107.007 170.869C106.927 170.515 106.942 170.168 107.05 169.827C107.159 169.485 107.345 169.188 107.608 168.936L107.324 167.679L99.4468 169.539L99.7304 170.796C100.075 170.905 100.369 171.089 100.613 171.347C100.857 171.605 101.019 171.911 101.099 172.264C101.179 172.617 101.164 172.964 101.055 173.306C100.947 173.647 100.761 173.944 100.498 174.196L100.782 175.453L108.659 173.593Z" fill="black"/>
<path d="M121.808 171.447H126.131V176.287H125.339V172.206H122.567V176.331H121.808V171.447ZM123.403 166.233H124.217V171.689H123.403V166.233ZM123.876 168.62H126.571V169.39H123.876V168.62ZM122.204 175.055H125.724V175.814H122.204V175.055ZM117.496 167.223V169.885H120.521V167.223H117.496ZM116.847 166.618H121.192V170.49H116.847V166.618ZM117.65 167.762L118.068 167.652C118.255 168.191 118.398 168.884 118.431 169.324L118.002 169.456C117.98 168.994 117.837 168.301 117.65 167.762ZM118.024 174.065L118.563 173.988C118.739 174.593 118.849 175.385 118.86 175.902L118.288 175.979C118.288 175.462 118.178 174.67 118.024 174.065ZM119.08 173.999L119.608 173.889C119.861 174.439 120.103 175.176 120.18 175.66L119.619 175.781C119.553 175.297 119.322 174.56 119.08 173.999ZM120.125 173.845L120.642 173.647C121.038 174.153 121.434 174.835 121.599 175.286L121.049 175.539C120.884 175.066 120.499 174.362 120.125 173.845ZM117.089 174.021L117.672 174.175C117.562 174.989 117.386 175.847 116.913 176.342L116.352 176.034C116.781 175.583 116.99 174.78 117.089 174.021ZM119.905 167.619L120.389 167.806C120.191 168.367 119.971 169.082 119.784 169.522L119.421 169.379C119.586 168.906 119.806 168.125 119.905 167.619ZM116.528 172.855C117.749 172.8 119.619 172.712 121.445 172.602L121.423 173.262C119.663 173.394 117.837 173.504 116.572 173.581L116.528 172.855ZM116.77 171.238H121.269V171.909H116.77V171.238ZM118.695 166.904H119.256V170.204H119.344V173.042H118.607V170.204H118.695V166.904ZM134.733 166.937L135.36 166.508C136.009 167.058 136.779 167.839 137.142 168.345L136.46 168.829C136.13 168.301 135.382 167.509 134.733 166.937ZM127.605 169.467H137.406V170.259H127.605V169.467ZM127.44 172.701C128.749 172.459 130.817 172.019 132.753 171.601L132.819 172.349C131.015 172.767 129.068 173.218 127.682 173.526L127.44 172.701ZM129.97 167.333H130.795V175.275C130.795 175.814 130.663 176.056 130.311 176.188C129.959 176.32 129.376 176.353 128.463 176.342C128.419 176.122 128.276 175.748 128.155 175.506C128.859 175.539 129.508 175.528 129.706 175.517C129.904 175.517 129.97 175.462 129.97 175.264V167.333ZM132.06 166.343L132.643 167.036C131.367 167.476 129.497 167.817 127.924 168.037C127.88 167.85 127.781 167.542 127.671 167.355C129.222 167.113 131.004 166.739 132.06 166.343ZM133.16 166.31H134.018C133.996 171.359 135.074 175.539 136.416 175.539C136.713 175.539 136.845 174.967 136.911 173.548C137.087 173.735 137.384 173.922 137.615 174.01C137.461 175.836 137.164 176.375 136.339 176.375C134.183 176.375 133.204 171.546 133.16 166.31ZM136.141 170.765L136.878 171.073C135.8 173.086 133.985 174.857 131.961 175.924C131.829 175.715 131.598 175.451 131.389 175.264C133.347 174.318 135.162 172.624 136.141 170.765ZM140.761 171.084H146.217V171.766H140.761V171.084ZM140.552 172.965H146.448V173.669H140.552V172.965ZM144.215 171.304H144.963V176.133H144.215V171.304ZM141.96 171.337H142.675V173.339C142.675 174.01 142.411 175.451 141.168 176.287C141.058 176.133 140.805 175.902 140.618 175.792C141.729 175.11 141.96 173.944 141.96 173.339V171.337ZM139.397 168.213H142.488V168.807H139.397V168.213ZM144.468 168.213H147.581V168.807H144.468V168.213ZM147.262 166.684H148.076V175.264C148.076 175.759 147.966 176.023 147.636 176.166C147.306 176.309 146.756 176.32 145.92 176.32C145.887 176.1 145.777 175.715 145.656 175.484C146.261 175.506 146.855 175.506 147.031 175.495C147.207 175.495 147.262 175.429 147.262 175.264V166.684ZM139.463 166.684H142.994V170.391H139.463V169.764H142.213V167.322H139.463V166.684ZM147.658 166.684V167.322H144.754V169.775H147.658V170.402H143.962V166.684H147.658ZM138.968 166.684H139.782V176.342H138.968V166.684ZM150.639 167.718H154.511V170.842H150.639V170.105H153.774V168.455H150.639V167.718ZM151.453 174.835H154.368V175.517H151.453V174.835ZM151.167 172.085H154.665V175.99H153.917V172.767H151.893V176.232H151.167V172.085ZM150.243 167.718H151.013V170.314C151.013 171.942 150.87 174.362 149.99 176.023C149.858 175.88 149.528 175.616 149.363 175.528C150.166 173.977 150.243 171.832 150.243 170.303V167.718ZM151.574 166.42L152.278 166.211C152.564 166.783 152.883 167.509 153.026 167.982L152.278 168.224C152.146 167.74 151.838 166.992 151.574 166.42ZM156.051 168.279H159.516V169.049H156.051V168.279ZM156.337 166.211L157.118 166.332C156.788 168.378 156.238 170.281 155.38 171.524C155.27 171.392 154.951 171.106 154.764 170.985C155.578 169.852 156.062 168.07 156.337 166.211ZM158.24 168.697L159.021 168.763C158.581 172.371 157.646 174.824 155.358 176.375C155.27 176.21 155.028 175.858 154.863 175.693C157.03 174.362 157.866 172.019 158.24 168.697ZM156.403 168.961C156.843 171.942 157.789 174.582 159.648 175.693C159.461 175.847 159.219 176.122 159.098 176.32C157.162 175.033 156.227 172.327 155.732 169.071L156.403 168.961ZM164.136 168.158L165.027 168.334C164.268 169.401 163.157 170.446 161.54 171.249C161.419 171.051 161.166 170.776 160.979 170.655C162.508 169.973 163.575 169.016 164.136 168.158ZM164.015 168.983H167.843V169.643H163.421L164.015 168.983ZM167.612 168.983H167.766L167.92 168.95L168.47 169.291C166.996 171.601 163.751 172.998 160.792 173.625C160.715 173.416 160.539 173.086 160.385 172.899C163.212 172.382 166.358 171.051 167.612 169.115V168.983ZM163.696 169.5C164.983 171.15 167.645 172.217 170.593 172.591C170.406 172.778 170.186 173.13 170.065 173.372C167.106 172.91 164.444 171.733 162.97 169.83L163.696 169.5ZM162.464 172.943H168.58V176.309H167.733V173.647H163.278V176.32H162.464V172.943ZM162.871 175.253H168.151V175.957H162.871V175.253ZM165.049 166.222H165.896V167.652H165.049V166.222ZM160.836 167.212H170.142V169.291H169.306V167.971H161.65V169.291H160.836V167.212ZM172.518 166.618H175.07V167.388H172.518V166.618ZM172.518 169.192H175.092V169.962H172.518V169.192ZM176.808 170.391H180.801V171.161H176.808V170.391ZM172.496 171.832H175.07V172.613H172.496V171.832ZM172.177 166.618H172.936V170.578C172.936 172.294 172.826 174.725 172.045 176.353C171.891 176.221 171.561 176.034 171.363 175.957C172.122 174.406 172.177 172.195 172.177 170.578V166.618ZM174.608 166.618H175.378V175.352C175.378 175.792 175.279 176.045 175.004 176.188C174.718 176.32 174.278 176.342 173.53 176.331C173.497 176.133 173.398 175.759 173.288 175.55C173.805 175.561 174.267 175.561 174.399 175.55C174.553 175.539 174.608 175.495 174.608 175.341V166.618ZM180.229 166.651H181.021V168.785C181.021 169.192 180.933 169.412 180.581 169.533C180.24 169.654 179.69 169.654 178.854 169.654C178.81 169.423 178.689 169.148 178.59 168.95C179.25 168.961 179.833 168.961 180.009 168.95C180.185 168.95 180.229 168.906 180.229 168.774V166.651ZM180.581 170.391H180.724L180.856 170.369L181.34 170.534C180.79 173.35 179.382 175.253 177.666 176.276C177.567 176.089 177.347 175.803 177.182 175.66C178.744 174.835 180.108 172.954 180.581 170.545V170.391ZM178.04 170.864C178.667 172.998 179.943 174.879 181.67 175.715C181.483 175.869 181.252 176.155 181.131 176.342C179.349 175.374 178.073 173.383 177.38 171.04L178.04 170.864ZM176.346 166.651H180.449V167.421H177.127V176.331H176.346V166.651ZM187.038 169.731H187.885V176.331H187.038V169.731ZM184.541 171.59V172.547H190.525V171.59H184.541ZM184.541 170.017V170.952H190.525V170.017H184.541ZM183.738 169.346H191.361V173.207H183.738V169.346ZM182.627 174.054H192.384V174.78H182.627V174.054ZM184.189 167.201V168.246H186.301V167.201H184.189ZM183.441 166.651H187.071V168.796H183.441V166.651ZM188.71 167.201V168.246H190.844V167.201H188.71ZM187.962 166.651H191.625V168.796H187.962V166.651Z" fill="black"/>
</svg>
