<svg width="361" height="121" viewBox="0 0 361 121" fill="none" xmlns="http://www.w3.org/2000/svg">
<rect width="361" height="121" rx="10" fill="#FEFEFE"/>
<ellipse cx="30.5" cy="31.9914" rx="21.5" ry="21.9914" fill="#FBFBFB"/>
<path d="M34.339 28.2508C34.2537 27.5311 33.9081 26.9724 33.302 26.5747C32.696 26.177 31.9526 25.9781 31.0719 25.9781C30.428 25.9781 29.8645 26.0823 29.3816 26.2906C28.9034 26.4989 28.5293 26.7854 28.2594 27.15C27.9943 27.5146 27.8617 27.9289 27.8617 28.3929C27.8617 28.7811 27.954 29.1149 28.1387 29.3943C28.3281 29.6689 28.5695 29.8985 28.8631 30.0832C29.1567 30.2631 29.4644 30.4123 29.7864 30.5307C30.1084 30.6443 30.4043 30.7366 30.6742 30.8076L32.1515 31.2054C32.5302 31.3048 32.9516 31.4421 33.4157 31.6173C33.8844 31.7925 34.3319 32.0316 34.758 32.3346C35.1889 32.6329 35.544 33.0164 35.8233 33.4852C36.1027 33.9539 36.2424 34.5292 36.2424 35.211C36.2424 35.997 36.0364 36.7073 35.6245 37.3417C35.2173 37.9762 34.6207 38.4805 33.8347 38.8545C33.0534 39.2286 32.1041 39.4156 30.9867 39.4156C29.945 39.4156 29.043 39.2475 28.2807 38.9113C27.5231 38.5752 26.9266 38.1064 26.4909 37.5051C26.0601 36.9038 25.8162 36.2054 25.7594 35.4099H27.5776C27.6249 35.9592 27.8096 36.4137 28.1316 36.7735C28.4583 37.1287 28.8702 37.3938 29.3674 37.569C29.8693 37.7395 30.409 37.8247 30.9867 37.8247C31.659 37.8247 32.2627 37.7158 32.7978 37.498C33.3328 37.2754 33.7566 36.9677 34.0691 36.5747C34.3816 36.177 34.5378 35.7129 34.5378 35.1826C34.5378 34.6997 34.4029 34.3067 34.133 34.0037C33.8631 33.7006 33.508 33.4544 33.0676 33.265C32.6273 33.0756 32.1515 32.9099 31.6401 32.7679L29.8503 32.2565C28.714 31.9298 27.8143 31.4634 27.1515 30.8574C26.4886 30.2513 26.1571 29.4582 26.1571 28.4781C26.1571 27.6637 26.3773 26.9535 26.8176 26.3474C27.2627 25.7366 27.8593 25.2631 28.6074 24.927C29.3603 24.586 30.2007 24.4156 31.1287 24.4156C32.0662 24.4156 32.8996 24.5837 33.6287 24.9199C34.3579 25.2513 34.9355 25.7058 35.3617 26.2835C35.7926 26.8611 36.0198 27.5169 36.0435 28.2508H34.339Z" fill="black"/>
<path d="M72.233 19.8182H73.7045L77.1648 28.2699H77.2841L80.7443 19.8182H82.2159V30H81.0625V22.2642H80.9631L77.7812 30H76.6676L73.4858 22.2642H73.3864V30H72.233V19.8182ZM87.7306 30.1591C86.9949 30.1591 86.3601 29.9967 85.8265 29.6719C85.2962 29.3438 84.8869 28.8864 84.5985 28.2997C84.3135 27.7098 84.171 27.0237 84.171 26.2415C84.171 25.4593 84.3135 24.7699 84.5985 24.1733C84.8869 23.5734 85.2879 23.1061 85.8017 22.7713C86.3187 22.4332 86.9219 22.2642 87.6113 22.2642C88.0091 22.2642 88.4018 22.3305 88.7896 22.4631C89.1774 22.5956 89.5304 22.8111 89.8485 23.1094C90.1667 23.4044 90.4203 23.7955 90.6092 24.2827C90.7981 24.7699 90.8926 25.3698 90.8926 26.0824V26.5795H85.0062V25.5653H89.6994C89.6994 25.1345 89.6132 24.75 89.4409 24.4119C89.2718 24.0739 89.0299 23.8071 88.715 23.6115C88.4035 23.416 88.0356 23.3182 87.6113 23.3182C87.144 23.3182 86.7396 23.4342 86.3983 23.6662C86.0602 23.8949 85.8 24.1932 85.6177 24.5611C85.4354 24.929 85.3443 25.3234 85.3443 25.7443V26.4205C85.3443 26.9972 85.4437 27.486 85.6426 27.8871C85.8448 28.2848 86.1248 28.5881 86.4828 28.7969C86.8407 29.0024 87.2567 29.1051 87.7306 29.1051C88.0389 29.1051 88.3173 29.062 88.5659 28.9759C88.8178 28.8864 89.0349 28.7538 89.2172 28.5781C89.3994 28.3991 89.5403 28.1771 89.6397 27.9119L90.7733 28.2301C90.6539 28.6146 90.4534 28.9527 90.1717 29.2443C89.89 29.5327 89.542 29.758 89.1277 29.9205C88.7134 30.0795 88.2477 30.1591 87.7306 30.1591ZM92.6774 30V22.3636H93.8109V23.5568H93.9103C94.0694 23.1491 94.3263 22.8326 94.6809 22.6072C95.0356 22.3786 95.4615 22.2642 95.9586 22.2642C96.4624 22.2642 96.8817 22.3786 97.2164 22.6072C97.5545 22.8326 97.818 23.1491 98.0069 23.5568H98.0865C98.282 23.1624 98.5753 22.8492 98.9664 22.6172C99.3575 22.3819 99.8265 22.2642 100.373 22.2642C101.056 22.2642 101.615 22.478 102.049 22.9055C102.483 23.3298 102.7 23.991 102.7 24.8892V30H101.527V24.8892C101.527 24.3258 101.373 23.9231 101.064 23.6811C100.756 23.4392 100.393 23.3182 99.9757 23.3182C99.4387 23.3182 99.0228 23.4806 98.7278 23.8054C98.4328 24.1269 98.2853 24.5346 98.2853 25.0284V30H97.0922V24.7699C97.0922 24.3357 96.9513 23.986 96.6696 23.7209C96.3878 23.4524 96.0249 23.3182 95.5808 23.3182C95.2759 23.3182 94.9908 23.3994 94.7257 23.5618C94.4638 23.7242 94.2517 23.9496 94.0893 24.2379C93.9302 24.523 93.8507 24.8527 93.8507 25.2273V30H92.6774ZM105.004 30V19.8182H106.178V23.5767H106.277C106.363 23.4441 106.483 23.2751 106.635 23.0696C106.791 22.8608 107.013 22.6752 107.301 22.5128C107.593 22.3471 107.987 22.2642 108.485 22.2642C109.128 22.2642 109.694 22.425 110.185 22.7464C110.675 23.0679 111.058 23.5237 111.333 24.1136C111.608 24.7036 111.746 25.3996 111.746 26.2017C111.746 27.0104 111.608 27.7114 111.333 28.3047C111.058 28.8946 110.677 29.352 110.19 29.6768C109.703 29.9983 109.141 30.1591 108.504 30.1591C108.014 30.1591 107.621 30.0779 107.326 29.9155C107.031 29.7498 106.804 29.5625 106.645 29.3537C106.486 29.1416 106.363 28.9659 106.277 28.8267H106.138V30H105.004ZM106.158 26.1818C106.158 26.7585 106.242 27.2673 106.411 27.7081C106.58 28.1456 106.827 28.4886 107.152 28.7372C107.477 28.9825 107.875 29.1051 108.345 29.1051C108.836 29.1051 109.245 28.9759 109.573 28.7173C109.905 28.4555 110.153 28.1042 110.319 27.6634C110.488 27.2192 110.573 26.7254 110.573 26.1818C110.573 25.6449 110.49 25.161 110.324 24.7301C110.162 24.2959 109.915 23.9529 109.583 23.701C109.255 23.4458 108.843 23.3182 108.345 23.3182C107.868 23.3182 107.467 23.4392 107.142 23.6811C106.817 23.9197 106.572 24.2545 106.406 24.6854C106.241 25.1129 106.158 25.6117 106.158 26.1818ZM116.742 30.1591C116.007 30.1591 115.372 29.9967 114.838 29.6719C114.308 29.3438 113.899 28.8864 113.61 28.2997C113.325 27.7098 113.183 27.0237 113.183 26.2415C113.183 25.4593 113.325 24.7699 113.61 24.1733C113.899 23.5734 114.3 23.1061 114.813 22.7713C115.33 22.4332 115.934 22.2642 116.623 22.2642C117.021 22.2642 117.414 22.3305 117.801 22.4631C118.189 22.5956 118.542 22.8111 118.86 23.1094C119.178 23.4044 119.432 23.7955 119.621 24.2827C119.81 24.7699 119.904 25.3698 119.904 26.0824V26.5795H114.018V25.5653H118.711C118.711 25.1345 118.625 24.75 118.453 24.4119C118.284 24.0739 118.042 23.8071 117.727 23.6115C117.415 23.416 117.047 23.3182 116.623 23.3182C116.156 23.3182 115.751 23.4342 115.41 23.6662C115.072 23.8949 114.812 24.1932 114.629 24.5611C114.447 24.929 114.356 25.3234 114.356 25.7443V26.4205C114.356 26.9972 114.455 27.486 114.654 27.8871C114.856 28.2848 115.137 28.5881 115.494 28.7969C115.852 29.0024 116.268 29.1051 116.742 29.1051C117.051 29.1051 117.329 29.062 117.578 28.9759C117.829 28.8864 118.047 28.7538 118.229 28.5781C118.411 28.3991 118.552 28.1771 118.651 27.9119L119.785 28.2301C119.666 28.6146 119.465 28.9527 119.183 29.2443C118.902 29.5327 118.554 29.758 118.139 29.9205C117.725 30.0795 117.259 30.1591 116.742 30.1591ZM121.689 30V22.3636H122.823V23.517H122.902C123.041 23.1392 123.293 22.8326 123.658 22.5973C124.022 22.362 124.433 22.2443 124.891 22.2443C124.977 22.2443 125.085 22.246 125.214 22.2493C125.343 22.2526 125.441 22.2576 125.507 22.2642V23.4574C125.468 23.4474 125.376 23.4325 125.234 23.4126C125.095 23.3894 124.947 23.3778 124.791 23.3778C124.42 23.3778 124.089 23.4557 123.797 23.6115C123.509 23.764 123.28 23.9761 123.111 24.2479C122.945 24.5163 122.862 24.8229 122.862 25.1676V30H121.689ZM134.395 19.8182V30H133.162V21.1108H133.103L130.617 22.7614V21.5085L133.162 19.8182H134.395Z" fill="black"/>
<rect x="71" y="40" width="120" height="8" rx="3" fill="#F3F3F3"/>
<path d="M184.744 44.1818V44.1648C184.746 43.9839 184.765 43.84 184.801 43.733C184.837 43.6259 184.888 43.5393 184.955 43.473C185.021 43.4067 185.1 43.3456 185.193 43.2898C185.249 43.2557 185.299 43.2154 185.344 43.169C185.388 43.1217 185.423 43.0672 185.449 43.0057C185.475 42.9441 185.489 42.8759 185.489 42.8011C185.489 42.7083 185.467 42.6278 185.423 42.5597C185.38 42.4915 185.321 42.4389 185.249 42.402C185.176 42.3651 185.095 42.3466 185.006 42.3466C184.928 42.3466 184.853 42.3627 184.781 42.3949C184.709 42.4271 184.649 42.4777 184.601 42.5469C184.553 42.616 184.525 42.7064 184.517 42.8182H184.159C184.167 42.6572 184.208 42.5194 184.284 42.4048C184.361 42.2902 184.462 42.2027 184.587 42.142C184.713 42.0814 184.852 42.0511 185.006 42.0511C185.172 42.0511 185.317 42.0843 185.44 42.1506C185.564 42.2169 185.66 42.3078 185.727 42.4233C185.795 42.5388 185.83 42.6705 185.83 42.8182C185.83 42.9223 185.813 43.0166 185.781 43.1009C185.75 43.1851 185.705 43.2604 185.645 43.3267C185.586 43.393 185.515 43.4517 185.432 43.5028C185.348 43.5549 185.282 43.6098 185.232 43.6676C185.181 43.7244 185.145 43.7921 185.122 43.8707C185.099 43.9493 185.087 44.0473 185.085 44.1648V44.1818H184.744ZM184.926 45.0227C184.856 45.0227 184.796 44.9976 184.746 44.9474C184.696 44.8973 184.67 44.8371 184.67 44.767C184.67 44.697 184.696 44.6368 184.746 44.5866C184.796 44.5365 184.856 44.5114 184.926 44.5114C184.996 44.5114 185.056 44.5365 185.107 44.5866C185.157 44.6368 185.182 44.697 185.182 44.767C185.182 44.8134 185.17 44.8561 185.146 44.8949C185.124 44.9337 185.093 44.965 185.054 44.9886C185.016 45.0114 184.973 45.0227 184.926 45.0227Z" fill="#C5C5C5"/>
<ellipse cx="30.5" cy="88.9914" rx="21.5" ry="21.9914" fill="#FBFBFB"/>
<path d="M26.6001 96.1599H24.7536L30.0945 81.6145H31.9126L37.2536 96.1599H35.407L31.0604 83.9156H30.9467L26.6001 96.1599ZM27.282 90.4781H34.7251V92.0406H27.282V90.4781Z" fill="black"/>
<rect x="71" y="97" width="192" height="8" rx="3" fill="#F3F3F3"/>
<path d="M72.6506 87H71.358L75.0966 76.8182H76.3693L80.108 87H78.8153L75.7727 78.429H75.6932L72.6506 87ZM73.1278 83.0227H78.3381V84.1165H73.1278V83.0227ZM86.3473 83.8778V79.3636H87.5206V87H86.3473V85.7074H86.2678C86.0888 86.0952 85.8104 86.425 85.4325 86.6967C85.0547 86.9652 84.5774 87.0994 84.0007 87.0994C83.5234 87.0994 83.0992 86.995 82.728 86.7862C82.3568 86.5741 82.0651 86.2559 81.853 85.8317C81.6409 85.4041 81.5348 84.8655 81.5348 84.2159V79.3636H82.7081V84.1364C82.7081 84.6932 82.8639 85.1373 83.1754 85.4688C83.4903 85.8002 83.8913 85.9659 84.3786 85.9659C84.6702 85.9659 84.9669 85.8913 85.2685 85.7422C85.5734 85.593 85.8286 85.3643 86.0341 85.0561C86.2429 84.7479 86.3473 84.3551 86.3473 83.8778ZM92.9906 79.3636V80.358H89.0332V79.3636H92.9906ZM90.1866 77.5341H91.3599V84.8125C91.3599 85.1439 91.408 85.3925 91.5041 85.5582C91.6035 85.7206 91.7295 85.83 91.8819 85.8864C92.0377 85.9394 92.2018 85.9659 92.3741 85.9659C92.5034 85.9659 92.6094 85.9593 92.6923 85.946C92.7752 85.9295 92.8414 85.9162 92.8912 85.9062L93.1298 86.9602C93.0502 86.9901 92.9392 87.0199 92.7967 87.0497C92.6542 87.0829 92.4735 87.0994 92.2548 87.0994C91.9234 87.0994 91.5985 87.0282 91.2804 86.8857C90.9655 86.7431 90.7037 86.526 90.4949 86.2344C90.2894 85.9427 90.1866 85.5748 90.1866 85.1307V77.5341ZM97.7757 87.1591C97.0864 87.1591 96.4815 86.995 95.9611 86.6669C95.4441 86.3388 95.0397 85.8797 94.748 85.2898C94.4597 84.6998 94.3155 84.0104 94.3155 83.2216C94.3155 82.4261 94.4597 81.7318 94.748 81.1385C95.0397 80.5452 95.4441 80.0845 95.9611 79.7564C96.4815 79.4283 97.0864 79.2642 97.7757 79.2642C98.4651 79.2642 99.0684 79.4283 99.5854 79.7564C100.106 80.0845 100.51 80.5452 100.798 81.1385C101.09 81.7318 101.236 82.4261 101.236 83.2216C101.236 84.0104 101.09 84.6998 100.798 85.2898C100.51 85.8797 100.106 86.3388 99.5854 86.6669C99.0684 86.995 98.4651 87.1591 97.7757 87.1591ZM97.7757 86.1051C98.2994 86.1051 98.7303 85.9709 99.0684 85.7024C99.4064 85.4339 99.6567 85.081 99.8191 84.6435C99.9815 84.206 100.063 83.732 100.063 83.2216C100.063 82.7112 99.9815 82.2356 99.8191 81.7947C99.6567 81.3539 99.4064 80.9976 99.0684 80.7259C98.7303 80.4541 98.2994 80.3182 97.7757 80.3182C97.2521 80.3182 96.8212 80.4541 96.4831 80.7259C96.1451 80.9976 95.8948 81.3539 95.7324 81.7947C95.57 82.2356 95.4888 82.7112 95.4888 83.2216C95.4888 83.732 95.57 84.206 95.7324 84.6435C95.8948 85.081 96.1451 85.4339 96.4831 85.7024C96.8212 85.9709 97.2521 86.1051 97.7757 86.1051ZM107.124 87V76.8182H110.564C111.359 76.8182 112.012 76.9541 112.523 77.2259C113.033 77.4943 113.411 77.8639 113.656 78.3345C113.902 78.8052 114.024 79.3404 114.024 79.9403C114.024 80.5402 113.902 81.0722 113.656 81.5362C113.411 82.0002 113.035 82.3648 112.528 82.63C112.021 82.8918 111.373 83.0227 110.584 83.0227H107.8V81.9091H110.544C111.088 81.9091 111.525 81.8295 111.857 81.6705C112.191 81.5114 112.433 81.286 112.582 80.9943C112.735 80.6993 112.811 80.348 112.811 79.9403C112.811 79.5327 112.735 79.1764 112.582 78.8714C112.43 78.5665 112.186 78.3312 111.852 78.1655C111.517 77.9964 111.074 77.9119 110.524 77.9119H108.357V87H107.124ZM111.916 82.4261L114.422 87H112.99L110.524 82.4261H111.916ZM119.039 87.1591C118.303 87.1591 117.669 86.9967 117.135 86.6719C116.605 86.3438 116.195 85.8864 115.907 85.2997C115.622 84.7098 115.48 84.0237 115.48 83.2415C115.48 82.4593 115.622 81.7699 115.907 81.1733C116.195 80.5734 116.597 80.1061 117.11 79.7713C117.627 79.4332 118.231 79.2642 118.92 79.2642C119.318 79.2642 119.71 79.3305 120.098 79.4631C120.486 79.5956 120.839 79.8111 121.157 80.1094C121.475 80.4044 121.729 80.7955 121.918 81.2827C122.107 81.7699 122.201 82.3698 122.201 83.0824V83.5795H116.315V82.5653H121.008C121.008 82.1345 120.922 81.75 120.749 81.4119C120.58 81.0739 120.338 80.8071 120.024 80.6115C119.712 80.416 119.344 80.3182 118.92 80.3182C118.453 80.3182 118.048 80.4342 117.707 80.6662C117.369 80.8949 117.109 81.1932 116.926 81.5611C116.744 81.929 116.653 82.3234 116.653 82.7443V83.4205C116.653 83.9972 116.752 84.486 116.951 84.8871C117.153 85.2848 117.433 85.5881 117.791 85.7969C118.149 86.0024 118.565 86.1051 119.039 86.1051C119.347 86.1051 119.626 86.062 119.874 85.9759C120.126 85.8864 120.343 85.7538 120.526 85.5781C120.708 85.3991 120.849 85.1771 120.948 84.9119L122.082 85.2301C121.963 85.6146 121.762 85.9527 121.48 86.2443C121.199 86.5327 120.851 86.758 120.436 86.9205C120.022 87.0795 119.556 87.1591 119.039 87.1591ZM123.986 89.8636V79.3636H125.119V80.5767H125.259C125.345 80.4441 125.464 80.2751 125.617 80.0696C125.772 79.8608 125.994 79.6752 126.283 79.5128C126.575 79.3471 126.969 79.2642 127.466 79.2642C128.109 79.2642 128.676 79.425 129.166 79.7464C129.657 80.0679 130.04 80.5237 130.315 81.1136C130.59 81.7036 130.727 82.3996 130.727 83.2017C130.727 84.0104 130.59 84.7114 130.315 85.3047C130.04 85.8946 129.659 86.352 129.171 86.6768C128.684 86.9983 128.122 87.1591 127.486 87.1591C126.995 87.1591 126.603 87.0779 126.308 86.9155C126.013 86.7498 125.786 86.5625 125.627 86.3537C125.468 86.1416 125.345 85.9659 125.259 85.8267H125.159V89.8636H123.986ZM125.139 83.1818C125.139 83.7585 125.224 84.2673 125.393 84.7081C125.562 85.1456 125.809 85.4886 126.134 85.7372C126.459 85.9825 126.856 86.1051 127.327 86.1051C127.817 86.1051 128.227 85.9759 128.555 85.7173C128.886 85.4555 129.135 85.1042 129.301 84.6634C129.47 84.2192 129.554 83.7254 129.554 83.1818C129.554 82.6449 129.471 82.161 129.306 81.7301C129.143 81.2959 128.896 80.9529 128.565 80.701C128.237 80.4458 127.824 80.3182 127.327 80.3182C126.85 80.3182 126.449 80.4392 126.124 80.6811C125.799 80.9197 125.554 81.2545 125.388 81.6854C125.222 82.1129 125.139 82.6117 125.139 83.1818ZM133.691 76.8182V87H132.517V76.8182H133.691ZM136.595 89.8636C136.396 89.8636 136.219 89.8471 136.063 89.8139C135.907 89.7841 135.8 89.7543 135.74 89.7244L136.038 88.6903C136.323 88.7633 136.575 88.7898 136.794 88.7699C137.013 88.75 137.207 88.6522 137.376 88.4766C137.548 88.3042 137.705 88.0241 137.848 87.6364L138.067 87.0398L135.243 79.3636H136.516L138.624 85.4489H138.703L140.811 79.3636H142.084L138.842 88.1136C138.696 88.508 138.516 88.8345 138.3 89.093C138.085 89.3549 137.835 89.5488 137.55 89.6747C137.268 89.8007 136.95 89.8636 136.595 89.8636ZM147.729 87V76.8182H148.902V80.5767H149.002C149.088 80.4441 149.207 80.2751 149.36 80.0696C149.516 79.8608 149.738 79.6752 150.026 79.5128C150.318 79.3471 150.712 79.2642 151.209 79.2642C151.852 79.2642 152.419 79.425 152.909 79.7464C153.4 80.0679 153.783 80.5237 154.058 81.1136C154.333 81.7036 154.471 82.3996 154.471 83.2017C154.471 84.0104 154.333 84.7114 154.058 85.3047C153.783 85.8946 153.402 86.352 152.914 86.6768C152.427 86.9983 151.865 87.1591 151.229 87.1591C150.739 87.1591 150.346 87.0779 150.051 86.9155C149.756 86.7498 149.529 86.5625 149.37 86.3537C149.211 86.1416 149.088 85.9659 149.002 85.8267H148.863V87H147.729ZM148.882 83.1818C148.882 83.7585 148.967 84.2673 149.136 84.7081C149.305 85.1456 149.552 85.4886 149.877 85.7372C150.202 85.9825 150.599 86.1051 151.07 86.1051C151.56 86.1051 151.97 85.9759 152.298 85.7173C152.629 85.4555 152.878 85.1042 153.044 84.6634C153.213 84.2192 153.297 83.7254 153.297 83.1818C153.297 82.6449 153.214 82.161 153.049 81.7301C152.886 81.2959 152.639 80.9529 152.308 80.701C151.98 80.4458 151.567 80.3182 151.07 80.3182C150.593 80.3182 150.192 80.4392 149.867 80.6811C149.542 80.9197 149.297 81.2545 149.131 81.6854C148.965 82.1129 148.882 82.6117 148.882 83.1818ZM156.748 89.8636C156.549 89.8636 156.371 89.8471 156.216 89.8139C156.06 89.7841 155.952 89.7543 155.892 89.7244L156.191 88.6903C156.476 88.7633 156.728 88.7898 156.946 88.7699C157.165 88.75 157.359 88.6522 157.528 88.4766C157.7 88.3042 157.858 88.0241 158 87.6364L158.219 87.0398L155.395 79.3636H156.668L158.776 85.4489H158.855L160.963 79.3636H162.236L158.995 88.1136C158.849 88.508 158.668 88.8345 158.453 89.093C158.237 89.3549 157.987 89.5488 157.702 89.6747C157.42 89.8007 157.102 89.8636 156.748 89.8636ZM176.075 80H174.842C174.769 79.6454 174.641 79.3338 174.459 79.0653C174.28 78.7969 174.061 78.5715 173.803 78.3892C173.547 78.2036 173.264 78.0644 172.952 77.9716C172.641 77.8788 172.316 77.8324 171.978 77.8324C171.362 77.8324 170.803 77.9882 170.303 78.2997C169.805 78.6113 169.409 79.0703 169.114 79.6768C168.823 80.2834 168.677 81.0275 168.677 81.9091C168.677 82.7907 168.823 83.5348 169.114 84.1413C169.409 84.7479 169.805 85.2069 170.303 85.5185C170.803 85.83 171.362 85.9858 171.978 85.9858C172.316 85.9858 172.641 85.9394 172.952 85.8466C173.264 85.7538 173.547 85.6162 173.803 85.4339C174.061 85.2483 174.28 85.0213 174.459 84.7528C174.641 84.4811 174.769 84.1695 174.842 83.8182H176.075C175.982 84.3385 175.813 84.8042 175.567 85.2152C175.322 85.6262 175.017 85.9759 174.653 86.2642C174.288 86.5492 173.879 86.7663 173.425 86.9155C172.974 87.0646 172.492 87.1392 171.978 87.1392C171.11 87.1392 170.337 86.9271 169.661 86.5028C168.985 86.0786 168.453 85.4754 168.065 84.6932C167.678 83.911 167.484 82.983 167.484 81.9091C167.484 80.8352 167.678 79.9072 168.065 79.125C168.453 78.3428 168.985 77.7396 169.661 77.3153C170.337 76.8911 171.11 76.679 171.978 76.679C172.492 76.679 172.974 76.7536 173.425 76.9027C173.879 77.0518 174.288 77.2706 174.653 77.5589C175.017 77.844 175.322 78.192 175.567 78.603C175.813 79.0107 175.982 79.4763 176.075 80ZM178.067 87V76.8182H184.172V77.9119H179.3V81.3523H183.715V82.446H179.3V87H178.067ZM186.284 87V76.8182H189.843C190.553 76.8182 191.138 76.9408 191.598 77.1861C192.059 77.428 192.402 77.7545 192.627 78.1655C192.853 78.5732 192.966 79.0256 192.966 79.5227C192.966 79.9602 192.888 80.3215 192.732 80.6065C192.579 80.8916 192.377 81.117 192.125 81.2827C191.877 81.4484 191.607 81.571 191.315 81.6506V81.75C191.627 81.7699 191.94 81.8793 192.255 82.0781C192.569 82.277 192.833 82.562 193.045 82.9332C193.257 83.3045 193.363 83.7585 193.363 84.2955C193.363 84.8059 193.247 85.2649 193.015 85.6726C192.783 86.0803 192.417 86.4034 191.917 86.642C191.416 86.8807 190.765 87 189.963 87H186.284ZM187.517 85.9062H189.963C190.768 85.9062 191.34 85.7505 191.678 85.4389C192.019 85.1241 192.19 84.7429 192.19 84.2955C192.19 83.9508 192.102 83.6326 191.926 83.3409C191.751 83.0459 191.501 82.8106 191.176 82.6349C190.851 82.456 190.467 82.3665 190.022 82.3665H187.517V85.9062ZM187.517 81.2926H189.804C190.175 81.2926 190.51 81.2197 190.808 81.0739C191.109 80.928 191.348 80.7225 191.524 80.4574C191.703 80.1922 191.792 79.8807 191.792 79.5227C191.792 79.0753 191.636 78.6958 191.325 78.3842C191.013 78.0694 190.52 77.9119 189.843 77.9119H187.517V81.2926ZM198.332 87.1591C197.643 87.1591 197.038 86.995 196.518 86.6669C196.001 86.3388 195.596 85.8797 195.305 85.2898C195.016 84.6998 194.872 84.0104 194.872 83.2216C194.872 82.4261 195.016 81.7318 195.305 81.1385C195.596 80.5452 196.001 80.0845 196.518 79.7564C197.038 79.4283 197.643 79.2642 198.332 79.2642C199.022 79.2642 199.625 79.4283 200.142 79.7564C200.662 80.0845 201.067 80.5452 201.355 81.1385C201.647 81.7318 201.793 82.4261 201.793 83.2216C201.793 84.0104 201.647 84.6998 201.355 85.2898C201.067 85.8797 200.662 86.3388 200.142 86.6669C199.625 86.995 199.022 87.1591 198.332 87.1591ZM198.332 86.1051C198.856 86.1051 199.287 85.9709 199.625 85.7024C199.963 85.4339 200.213 85.081 200.376 84.6435C200.538 84.206 200.619 83.732 200.619 83.2216C200.619 82.7112 200.538 82.2356 200.376 81.7947C200.213 81.3539 199.963 80.9976 199.625 80.7259C199.287 80.4541 198.856 80.3182 198.332 80.3182C197.809 80.3182 197.378 80.4541 197.04 80.7259C196.702 80.9976 196.451 81.3539 196.289 81.7947C196.127 82.2356 196.045 82.7112 196.045 83.2216C196.045 83.732 196.127 84.206 196.289 84.6435C196.451 85.081 196.702 85.4339 197.04 85.7024C197.378 85.9709 197.809 86.1051 198.332 86.1051ZM206.905 79.3636V80.358H202.947V79.3636H206.905ZM204.101 77.5341H205.274V84.8125C205.274 85.1439 205.322 85.3925 205.418 85.5582C205.518 85.7206 205.644 85.83 205.796 85.8864C205.952 85.9394 206.116 85.9659 206.288 85.9659C206.417 85.9659 206.523 85.9593 206.606 85.946C206.689 85.9295 206.756 85.9162 206.805 85.9062L207.044 86.9602C206.964 86.9901 206.853 87.0199 206.711 87.0497C206.568 87.0829 206.388 87.0994 206.169 87.0994C205.837 87.0994 205.513 87.0282 205.194 86.8857C204.88 86.7431 204.618 86.526 204.409 86.2344C204.203 85.9427 204.101 85.5748 204.101 85.1307V77.5341Z" fill="black"/>
</svg>
