<svg width="361" height="170" viewBox="0 0 361 170" fill="none" xmlns="http://www.w3.org/2000/svg">
<rect width="361" height="170" rx="10" fill="#FEFEFE"/>
<circle cx="41.5" cy="31.5" r="21.5" fill="#FBFBFB"/>
<path d="M37.6001 39H35.7536L41.0945 24.4545H42.9126L48.2536 39H46.407L42.0604 26.7557H41.9467L37.6001 39ZM38.282 33.3182H45.7251V34.8807H38.282V33.3182Z" fill="black"/>
<path d="M83.6506 30H82.358L86.0966 19.8182H87.3693L91.108 30H89.8153L86.7727 21.429H86.6932L83.6506 30ZM84.1278 26.0227H89.3381V27.1165H84.1278V26.0227ZM93.7081 25.4062V30H92.5348V22.3636H93.6683V23.5568H93.7678C93.9467 23.169 94.2185 22.8575 94.5831 22.6222C94.9477 22.3835 95.4183 22.2642 95.995 22.2642C96.5121 22.2642 96.9645 22.3703 97.3523 22.5824C97.7401 22.7912 98.0417 23.1094 98.2571 23.5369C98.4725 23.9612 98.5803 24.4981 98.5803 25.1477V30H97.407V25.2273C97.407 24.6274 97.2512 24.16 96.9396 23.8253C96.6281 23.4872 96.2005 23.3182 95.657 23.3182C95.2824 23.3182 94.9477 23.3994 94.6527 23.5618C94.361 23.7242 94.1307 23.9612 93.9616 24.2727C93.7926 24.5843 93.7081 24.9621 93.7081 25.4062ZM101.898 25.4062V30H100.724V22.3636H101.858V23.5568H101.957C102.136 23.169 102.408 22.8575 102.773 22.6222C103.137 22.3835 103.608 22.2642 104.184 22.2642C104.702 22.2642 105.154 22.3703 105.542 22.5824C105.93 22.7912 106.231 23.1094 106.447 23.5369C106.662 23.9612 106.77 24.4981 106.77 25.1477V30H105.596V25.2273C105.596 24.6274 105.441 24.16 105.129 23.8253C104.818 23.4872 104.39 23.3182 103.846 23.3182C103.472 23.3182 103.137 23.3994 102.842 23.5618C102.55 23.7242 102.32 23.9612 102.151 24.2727C101.982 24.5843 101.898 24.9621 101.898 25.4062ZM112.016 30.1591C111.327 30.1591 110.722 29.995 110.201 29.6669C109.684 29.3388 109.28 28.8797 108.988 28.2898C108.7 27.6998 108.556 27.0104 108.556 26.2216C108.556 25.4261 108.7 24.7318 108.988 24.1385C109.28 23.5452 109.684 23.0845 110.201 22.7564C110.722 22.4283 111.327 22.2642 112.016 22.2642C112.705 22.2642 113.309 22.4283 113.826 22.7564C114.346 23.0845 114.75 23.5452 115.039 24.1385C115.33 24.7318 115.476 25.4261 115.476 26.2216C115.476 27.0104 115.33 27.6998 115.039 28.2898C114.75 28.8797 114.346 29.3388 113.826 29.6669C113.309 29.995 112.705 30.1591 112.016 30.1591ZM112.016 29.1051C112.54 29.1051 112.971 28.9709 113.309 28.7024C113.647 28.4339 113.897 28.081 114.059 27.6435C114.222 27.206 114.303 26.732 114.303 26.2216C114.303 25.7112 114.222 25.2356 114.059 24.7947C113.897 24.3539 113.647 23.9976 113.309 23.7259C112.971 23.4541 112.54 23.3182 112.016 23.3182C111.492 23.3182 111.061 23.4541 110.723 23.7259C110.385 23.9976 110.135 24.3539 109.973 24.7947C109.81 25.2356 109.729 25.7112 109.729 26.2216C109.729 26.732 109.81 27.206 109.973 27.6435C110.135 28.081 110.385 28.4339 110.723 28.7024C111.061 28.9709 111.492 29.1051 112.016 29.1051ZM122.08 26.8778V22.3636H123.253V30H122.08V28.7074H122C121.821 29.0952 121.543 29.425 121.165 29.6967C120.787 29.9652 120.31 30.0994 119.733 30.0994C119.256 30.0994 118.832 29.995 118.46 29.7862C118.089 29.5741 117.798 29.2559 117.585 28.8317C117.373 28.4041 117.267 27.8655 117.267 27.2159V22.3636H118.441V27.1364C118.441 27.6932 118.596 28.1373 118.908 28.4688C119.223 28.8002 119.624 28.9659 120.111 28.9659C120.403 28.9659 120.699 28.8913 121.001 28.7422C121.306 28.593 121.561 28.3643 121.767 28.0561C121.975 27.7479 122.08 27.3551 122.08 26.8778ZM126.575 25.4062V30H125.402V22.3636H126.536V23.5568H126.635C126.814 23.169 127.086 22.8575 127.45 22.6222C127.815 22.3835 128.286 22.2642 128.862 22.2642C129.379 22.2642 129.832 22.3703 130.219 22.5824C130.607 22.7912 130.909 23.1094 131.124 23.5369C131.34 23.9612 131.447 24.4981 131.447 25.1477V30H130.274V25.2273C130.274 24.6274 130.118 24.16 129.807 23.8253C129.495 23.4872 129.068 23.3182 128.524 23.3182C128.15 23.3182 127.815 23.3994 127.52 23.5618C127.228 23.7242 126.998 23.9612 126.829 24.2727C126.66 24.5843 126.575 24.9621 126.575 25.4062ZM136.694 30.1591C135.978 30.1591 135.361 29.9901 134.844 29.652C134.327 29.3139 133.93 28.8482 133.651 28.255C133.373 27.6617 133.233 26.9839 133.233 26.2216C133.233 25.446 133.376 24.7616 133.661 24.1683C133.949 23.5717 134.35 23.1061 134.864 22.7713C135.381 22.4332 135.984 22.2642 136.674 22.2642C137.211 22.2642 137.695 22.3636 138.126 22.5625C138.556 22.7614 138.909 23.0398 139.184 23.3977C139.46 23.7557 139.63 24.1733 139.697 24.6506H138.523C138.434 24.3026 138.235 23.9943 137.927 23.7259C137.622 23.4541 137.211 23.3182 136.694 23.3182C136.236 23.3182 135.835 23.4375 135.491 23.6761C135.149 23.9115 134.882 24.2446 134.69 24.6754C134.501 25.103 134.407 25.6051 134.407 26.1818C134.407 26.7718 134.5 27.2855 134.685 27.723C134.874 28.1605 135.139 28.5002 135.481 28.7422C135.825 28.9841 136.23 29.1051 136.694 29.1051C136.999 29.1051 137.275 29.0521 137.524 28.946C137.773 28.84 137.983 28.6875 138.155 28.4886C138.328 28.2898 138.45 28.0511 138.523 27.7727H139.697C139.63 28.2235 139.466 28.6295 139.204 28.9908C138.946 29.3487 138.603 29.6338 138.175 29.8459C137.751 30.0547 137.257 30.1591 136.694 30.1591ZM144.613 30.1591C143.878 30.1591 143.243 29.9967 142.709 29.6719C142.179 29.3438 141.77 28.8864 141.481 28.2997C141.196 27.7098 141.054 27.0237 141.054 26.2415C141.054 25.4593 141.196 24.7699 141.481 24.1733C141.77 23.5734 142.171 23.1061 142.684 22.7713C143.202 22.4332 143.805 22.2642 144.494 22.2642C144.892 22.2642 145.285 22.3305 145.672 22.4631C146.06 22.5956 146.413 22.8111 146.731 23.1094C147.05 23.4044 147.303 23.7955 147.492 24.2827C147.681 24.7699 147.775 25.3698 147.775 26.0824V26.5795H141.889V25.5653H146.582C146.582 25.1345 146.496 24.75 146.324 24.4119C146.155 24.0739 145.913 23.8071 145.598 23.6115C145.286 23.416 144.918 23.3182 144.494 23.3182C144.027 23.3182 143.622 23.4342 143.281 23.6662C142.943 23.8949 142.683 24.1932 142.501 24.5611C142.318 24.929 142.227 25.3234 142.227 25.7443V26.4205C142.227 26.9972 142.327 27.486 142.525 27.8871C142.728 28.2848 143.008 28.5881 143.366 28.7969C143.724 29.0024 144.14 29.1051 144.613 29.1051C144.922 29.1051 145.2 29.062 145.449 28.9759C145.701 28.8864 145.918 28.7538 146.1 28.5781C146.282 28.3991 146.423 28.1771 146.523 27.9119L147.656 28.2301C147.537 28.6146 147.336 28.9527 147.055 29.2443C146.773 29.5327 146.425 29.758 146.01 29.9205C145.596 30.0795 145.131 30.1591 144.613 30.1591ZM149.56 30V22.3636H150.694V23.5568H150.793C150.952 23.1491 151.209 22.8326 151.564 22.6072C151.918 22.3786 152.344 22.2642 152.841 22.2642C153.345 22.2642 153.765 22.3786 154.099 22.6072C154.437 22.8326 154.701 23.1491 154.89 23.5568H154.969C155.165 23.1624 155.458 22.8492 155.849 22.6172C156.24 22.3819 156.709 22.2642 157.256 22.2642C157.939 22.2642 158.497 22.478 158.932 22.9055C159.366 23.3298 159.583 23.991 159.583 24.8892V30H158.41V24.8892C158.41 24.3258 158.256 23.9231 157.947 23.6811C157.639 23.4392 157.276 23.3182 156.858 23.3182C156.322 23.3182 155.906 23.4806 155.611 23.8054C155.316 24.1269 155.168 24.5346 155.168 25.0284V30H153.975V24.7699C153.975 24.3357 153.834 23.986 153.552 23.7209C153.271 23.4524 152.908 23.3182 152.464 23.3182C152.159 23.3182 151.874 23.3994 151.608 23.5618C151.347 23.7242 151.135 23.9496 150.972 24.2379C150.813 24.523 150.733 24.8527 150.733 25.2273V30H149.56ZM164.93 30.1591C164.194 30.1591 163.559 29.9967 163.026 29.6719C162.495 29.3438 162.086 28.8864 161.798 28.2997C161.513 27.7098 161.37 27.0237 161.37 26.2415C161.37 25.4593 161.513 24.7699 161.798 24.1733C162.086 23.5734 162.487 23.1061 163.001 22.7713C163.518 22.4332 164.121 22.2642 164.811 22.2642C165.208 22.2642 165.601 22.3305 165.989 22.4631C166.377 22.5956 166.73 22.8111 167.048 23.1094C167.366 23.4044 167.619 23.7955 167.808 24.2827C167.997 24.7699 168.092 25.3698 168.092 26.0824V26.5795H162.205V25.5653H166.899C166.899 25.1345 166.812 24.75 166.64 24.4119C166.471 24.0739 166.229 23.8071 165.914 23.6115C165.603 23.416 165.235 23.3182 164.811 23.3182C164.343 23.3182 163.939 23.4342 163.597 23.6662C163.259 23.8949 162.999 24.1932 162.817 24.5611C162.635 24.929 162.544 25.3234 162.544 25.7443V26.4205C162.544 26.9972 162.643 27.486 162.842 27.8871C163.044 28.2848 163.324 28.5881 163.682 28.7969C164.04 29.0024 164.456 29.1051 164.93 29.1051C165.238 29.1051 165.517 29.062 165.765 28.9759C166.017 28.8864 166.234 28.7538 166.416 28.5781C166.599 28.3991 166.74 28.1771 166.839 27.9119L167.972 28.2301C167.853 28.6146 167.653 28.9527 167.371 29.2443C167.089 29.5327 166.741 29.758 166.327 29.9205C165.913 30.0795 165.447 30.1591 164.93 30.1591ZM171.05 25.4062V30H169.877V22.3636H171.01V23.5568H171.11C171.289 23.169 171.56 22.8575 171.925 22.6222C172.289 22.3835 172.76 22.2642 173.337 22.2642C173.854 22.2642 174.306 22.3703 174.694 22.5824C175.082 22.7912 175.383 23.1094 175.599 23.5369C175.814 23.9612 175.922 24.4981 175.922 25.1477V30H174.749V25.2273C174.749 24.6274 174.593 24.16 174.281 23.8253C173.97 23.4872 173.542 23.3182 172.999 23.3182C172.624 23.3182 172.289 23.3994 171.994 23.5618C171.703 23.7242 171.472 23.9612 171.303 24.2727C171.134 24.5843 171.05 24.9621 171.05 25.4062ZM181.387 22.3636V23.358H177.43V22.3636H181.387ZM178.583 20.5341H179.756V27.8125C179.756 28.1439 179.804 28.3925 179.901 28.5582C180 28.7206 180.126 28.83 180.278 28.8864C180.434 28.9394 180.598 28.9659 180.771 28.9659C180.9 28.9659 181.006 28.9593 181.089 28.946C181.172 28.9295 181.238 28.9162 181.288 28.9062L181.526 29.9602C181.447 29.9901 181.336 30.0199 181.193 30.0497C181.051 30.0829 180.87 30.0994 180.651 30.0994C180.32 30.0994 179.995 30.0282 179.677 29.8857C179.362 29.7431 179.1 29.526 178.891 29.2344C178.686 28.9427 178.583 28.5748 178.583 28.1307V20.5341ZM187.249 30V19.8182H190.808C191.518 19.8182 192.103 19.9408 192.563 20.1861C193.024 20.428 193.367 20.7545 193.592 21.1655C193.818 21.5732 193.93 22.0256 193.93 22.5227C193.93 22.9602 193.853 23.3215 193.697 23.6065C193.544 23.8916 193.342 24.117 193.09 24.2827C192.842 24.4484 192.571 24.571 192.28 24.6506V24.75C192.591 24.7699 192.905 24.8793 193.219 25.0781C193.534 25.277 193.798 25.562 194.01 25.9332C194.222 26.3045 194.328 26.7585 194.328 27.2955C194.328 27.8059 194.212 28.2649 193.98 28.6726C193.748 29.0803 193.382 29.4034 192.881 29.642C192.381 29.8807 191.73 30 190.928 30H187.249ZM188.482 28.9062H190.928C191.733 28.9062 192.305 28.7505 192.643 28.4389C192.984 28.1241 193.155 27.7429 193.155 27.2955C193.155 26.9508 193.067 26.6326 192.891 26.3409C192.716 26.0459 192.465 25.8106 192.141 25.6349C191.816 25.456 191.431 25.3665 190.987 25.3665H188.482V28.9062ZM188.482 24.2926H190.768C191.14 24.2926 191.474 24.2197 191.773 24.0739C192.074 23.928 192.313 23.7225 192.489 23.4574C192.668 23.1922 192.757 22.8807 192.757 22.5227C192.757 22.0753 192.601 21.6958 192.29 21.3842C191.978 21.0694 191.484 20.9119 190.808 20.9119H188.482V24.2926ZM199.297 30.1591C198.608 30.1591 198.003 29.995 197.483 29.6669C196.966 29.3388 196.561 28.8797 196.27 28.2898C195.981 27.6998 195.837 27.0104 195.837 26.2216C195.837 25.4261 195.981 24.7318 196.27 24.1385C196.561 23.5452 196.966 23.0845 197.483 22.7564C198.003 22.4283 198.608 22.2642 199.297 22.2642C199.987 22.2642 200.59 22.4283 201.107 22.7564C201.627 23.0845 202.032 23.5452 202.32 24.1385C202.612 24.7318 202.757 25.4261 202.757 26.2216C202.757 27.0104 202.612 27.6998 202.32 28.2898C202.032 28.8797 201.627 29.3388 201.107 29.6669C200.59 29.995 199.987 30.1591 199.297 30.1591ZM199.297 29.1051C199.821 29.1051 200.252 28.9709 200.59 28.7024C200.928 28.4339 201.178 28.081 201.341 27.6435C201.503 27.206 201.584 26.732 201.584 26.2216C201.584 25.7112 201.503 25.2356 201.341 24.7947C201.178 24.3539 200.928 23.9976 200.59 23.7259C200.252 23.4541 199.821 23.3182 199.297 23.3182C198.774 23.3182 198.343 23.4541 198.005 23.7259C197.667 23.9976 197.416 24.3539 197.254 24.7947C197.092 25.2356 197.01 25.7112 197.01 26.2216C197.01 26.732 197.092 27.206 197.254 27.6435C197.416 28.081 197.667 28.4339 198.005 28.7024C198.343 28.9709 198.774 29.1051 199.297 29.1051ZM207.869 22.3636V23.358H203.912V22.3636H207.869ZM205.066 20.5341H206.239V27.8125C206.239 28.1439 206.287 28.3925 206.383 28.5582C206.482 28.7206 206.608 28.83 206.761 28.8864C206.917 28.9394 207.081 28.9659 207.253 28.9659C207.382 28.9659 207.488 28.9593 207.571 28.946C207.654 28.9295 207.72 28.9162 207.77 28.9062L208.009 29.9602C207.929 29.9901 207.818 30.0199 207.676 30.0497C207.533 30.0829 207.352 30.0994 207.134 30.0994C206.802 30.0994 206.477 30.0282 206.159 29.8857C205.844 29.7431 205.583 29.526 205.374 29.2344C205.168 28.9427 205.066 28.5748 205.066 28.1307V20.5341Z" fill="black"/>
<path d="M85.262 55.19H92.528V54.322H83.82V52.964H94.18V56.562H85.262V55.19ZM84.338 55.19H86.018C85.752 56.52 85.388 58.088 85.094 59.11L83.414 58.914C83.736 57.92 84.114 56.422 84.338 55.19ZM84.926 57.388H93.746V58.788H84.506L84.926 57.388ZM93.312 57.388H94.992C94.992 57.388 94.978 57.78 94.95 57.99C94.81 59.852 94.642 60.762 94.292 61.154C93.984 61.476 93.648 61.588 93.214 61.63C92.822 61.686 92.15 61.686 91.436 61.672C91.408 61.182 91.212 60.552 90.96 60.132C91.548 60.202 92.136 60.216 92.388 60.202C92.612 60.202 92.738 60.188 92.878 60.076C93.074 59.88 93.2 59.208 93.312 57.584V57.388ZM88.132 53.286H89.784V62.26H88.132V53.286ZM87.796 57.892L89.098 58.452C87.838 60.034 85.724 61.42 83.694 62.12C83.456 61.714 82.98 61.112 82.63 60.79C84.604 60.244 86.732 59.124 87.796 57.892ZM84.38 50.192H88.79V51.48H84.38V50.192ZM89.938 50.192H95.37V51.48H89.938V50.192ZM84.45 49.002L86.004 49.422C85.43 50.808 84.492 52.236 83.61 53.104C83.302 52.852 82.63 52.418 82.238 52.208C83.148 51.438 83.974 50.206 84.45 49.002ZM90.148 49.002L91.73 49.408C91.198 50.794 90.288 52.138 89.378 52.992C89.07 52.712 88.384 52.264 87.992 52.054C88.93 51.34 89.728 50.178 90.148 49.002ZM84.898 51.214L86.242 50.64C86.606 51.186 87.026 51.956 87.208 52.446L85.78 53.076C85.64 52.572 85.262 51.802 84.898 51.214ZM90.974 51.2L92.36 50.71C92.808 51.228 93.326 51.956 93.564 52.46L92.108 53.02C91.912 52.53 91.422 51.76 90.974 51.2ZM96.532 54.63H109.496V56.464H96.532V54.63ZM112.716 54.252H120.29V55.89H112.716V54.252ZM119.744 54.252H121.508C121.508 54.252 121.494 54.77 121.48 54.98C121.326 59.236 121.158 60.902 120.668 61.476C120.318 61.952 119.926 62.078 119.394 62.162C118.904 62.232 118.092 62.218 117.266 62.19C117.238 61.7 117.014 60.972 116.706 60.496C117.49 60.566 118.218 60.58 118.568 60.58C118.82 60.58 118.974 60.538 119.128 60.384C119.464 60.02 119.618 58.452 119.744 54.56V54.252ZM114.298 49.296L116.118 49.828C115.068 52.264 113.36 54.518 111.596 55.904C111.274 55.54 110.546 54.868 110.14 54.546C111.904 53.384 113.458 51.424 114.298 49.296ZM119.632 49.268C120.514 51.046 122.278 53.09 123.818 54.266C123.356 54.63 122.712 55.316 122.39 55.792C120.808 54.336 119.086 52.068 117.98 49.926L119.632 49.268ZM115.222 54.728H117.042C116.776 57.878 116.174 60.804 112.002 62.358C111.792 61.896 111.302 61.182 110.91 60.818C114.662 59.586 114.998 57.22 115.222 54.728ZM128.578 50.794H137.44V52.306H128.578V50.794ZM131.994 49.114H133.702V51.508H131.994V49.114ZM131.994 56.016H133.464V61.644H131.994V56.016ZM129.67 55.89H131.182V57.262C131.182 58.83 130.944 60.804 129.054 62.218C128.816 61.882 128.256 61.364 127.878 61.112C129.488 59.964 129.67 58.424 129.67 57.206V55.89ZM131.21 51.62L132.974 52.124C132.428 53.118 131.84 54.196 131.364 54.882L130.02 54.42C130.454 53.65 130.958 52.488 131.21 51.62ZM133.954 53.048L135.242 52.362C136.166 53.23 137.216 54.448 137.664 55.316L136.264 56.086C135.872 55.232 134.864 53.958 133.954 53.048ZM128.676 53.972C130.51 53.93 133.352 53.846 136.026 53.762L135.984 55.176C133.436 55.33 130.762 55.456 128.844 55.54L128.676 53.972ZM125.19 50.416L126.1 49.184C126.968 49.52 128.102 50.094 128.662 50.57L127.696 51.942C127.178 51.452 126.072 50.808 125.19 50.416ZM124.378 54.224L125.288 52.964C126.156 53.272 127.318 53.832 127.892 54.294L126.926 55.694C126.394 55.218 125.274 54.602 124.378 54.224ZM124.784 61.014C125.498 59.95 126.506 58.172 127.29 56.534L128.578 57.584C127.878 59.068 127.038 60.692 126.254 62.078L124.784 61.014ZM134.318 55.89H135.858V60.258C135.858 60.482 135.872 60.608 135.914 60.664C135.928 60.706 135.998 60.734 136.054 60.734C136.11 60.734 136.208 60.734 136.278 60.734C136.348 60.734 136.418 60.72 136.46 60.664C136.502 60.636 136.53 60.538 136.558 60.314C136.586 60.09 136.6 59.6 136.614 58.97C136.88 59.208 137.37 59.46 137.748 59.586C137.72 60.216 137.664 60.944 137.566 61.238C137.468 61.532 137.328 61.742 137.104 61.868C136.908 61.994 136.586 62.064 136.334 62.064C136.11 62.064 135.802 62.064 135.592 62.064C135.27 62.064 134.892 61.952 134.654 61.714C134.416 61.462 134.318 61.168 134.318 60.216V55.89ZM146.162 51.872H151.412V53.356H146.162V62.26H144.608V52.81L145.504 51.872H146.162ZM145.448 54.602H150.992V56.058H145.448V54.602ZM145.434 57.332H151.048V58.788H145.434V57.332ZM145.14 60.132H151.608V61.616H145.14V60.132ZM147.702 52.712H149.2V60.636H147.702V52.712ZM145.532 49.086L147.128 49.534C146.4 51.466 145.266 53.678 143.95 55.134C143.684 54.798 143.194 54.252 142.886 53.972C144.034 52.726 145.056 50.668 145.532 49.086ZM148.682 49.296L150.432 49.674C149.928 50.766 149.368 51.9 148.906 52.656L147.534 52.264C147.954 51.452 148.444 50.206 148.682 49.296ZM140.506 49.128L141.962 49.632C141.388 50.724 140.744 51.97 140.212 52.754L139.092 52.292C139.582 51.452 140.184 50.094 140.506 49.128ZM142.088 50.78L143.446 51.41C142.424 52.978 141.066 54.924 139.988 56.128L139.022 55.582C140.072 54.322 141.346 52.278 142.088 50.78ZM138.336 52.39L139.162 51.27C139.89 51.928 140.744 52.838 141.08 53.496L140.17 54.784C139.862 54.098 139.036 53.104 138.336 52.39ZM141.612 54.14L142.774 53.65C143.334 54.602 143.866 55.834 144.034 56.632L142.774 57.206C142.62 56.394 142.13 55.106 141.612 54.14ZM138.294 55.26C139.554 55.19 141.36 55.092 143.11 54.98L143.124 56.352C141.486 56.478 139.778 56.604 138.476 56.702L138.294 55.26ZM142.032 57.654L143.236 57.29C143.6 58.116 143.894 59.208 143.978 59.922L142.718 60.342C142.648 59.614 142.368 58.494 142.032 57.654ZM138.896 57.346L140.24 57.57C140.1 58.914 139.806 60.3 139.4 61.196C139.12 61.014 138.504 60.748 138.182 60.608C138.574 59.782 138.784 58.522 138.896 57.346ZM140.436 56.002H141.878V62.26H140.436V56.002ZM161.674 55.582L162.906 56.086C162.024 56.968 160.638 57.626 159.322 58.046C159.126 57.738 158.748 57.346 158.44 57.094C159.616 56.786 160.974 56.212 161.674 55.582ZM163.046 56.856L164.25 57.346C163.13 58.564 161.268 59.404 159.336 59.894C159.154 59.586 158.832 59.124 158.538 58.844C160.288 58.494 162.122 57.794 163.046 56.856ZM164.068 58.438L165.496 59.026C164.04 60.748 161.534 61.672 158.664 62.204C158.496 61.798 158.146 61.238 157.824 60.888C160.414 60.538 162.864 59.768 164.068 58.438ZM159.77 49.1L161.296 49.478C160.666 51.144 159.602 52.726 158.496 53.72C158.216 53.454 157.6 52.964 157.236 52.754C158.328 51.9 159.266 50.528 159.77 49.1ZM159.756 50.528H165.398V51.872H158.944L159.756 50.528ZM163.088 50.864L164.656 51.2C163.55 53.916 161.268 55.456 158.398 56.338C158.216 56.002 157.712 55.358 157.418 55.064C160.162 54.406 162.262 53.118 163.088 50.864ZM159.742 51.298C160.624 52.852 162.724 54.378 165.86 54.882C165.552 55.204 165.132 55.82 164.936 56.226C161.786 55.526 159.672 53.72 158.692 51.956L159.742 51.298ZM156.2 50.906H157.656V59.922H156.2V50.906ZM154.912 49.156L156.466 49.618C155.668 52.068 154.38 54.714 152.938 56.394C152.812 55.988 152.392 55.022 152.14 54.574C153.26 53.258 154.296 51.214 154.912 49.156ZM153.82 52.978L155.374 51.438L155.416 51.466V62.246H153.82V52.978ZM171.6 54.224L173.616 54.714C172.692 56.912 171.446 59.376 170.41 60.986L168.856 60.496C169.864 58.802 170.998 56.226 171.6 54.224ZM167.232 59.978C169.878 59.894 173.98 59.698 177.648 59.516L177.606 61.154C174.008 61.406 170.116 61.616 167.456 61.756L167.232 59.978ZM174.316 57.318L175.954 56.562C177.186 58.074 178.502 60.062 179.174 61.406L177.438 62.33C176.85 60.986 175.492 58.858 174.316 57.318ZM170.116 49.436L172.034 49.968C171.138 52.18 169.668 54.35 168.24 55.694C167.876 55.344 167.064 54.728 166.602 54.448C168.058 53.3 169.388 51.382 170.116 49.436ZM175.758 49.45C176.584 51.102 178.18 53.062 179.468 54.238C179.006 54.588 178.362 55.26 178.04 55.708C176.724 54.294 175.114 52.082 174.078 50.136L175.758 49.45ZM180.812 54.07H193.202V55.638H180.812V54.07ZM183.15 50.934H192.334V52.46H183.15V50.934ZM183.29 60.076H190.878V61.63H183.29V60.076ZM186.454 49.114H188.246V55.022H186.454V49.114ZM182.408 56.646H191.844V62.26H190.038V58.186H184.13V62.302H182.408V56.646ZM183.094 49.142L184.774 49.562C184.186 51.27 183.192 52.978 182.24 54.056C181.89 53.79 181.12 53.356 180.714 53.16C181.722 52.222 182.604 50.668 183.094 49.142Z" fill="black"/>
<rect x="82" y="115" width="259" height="45" rx="6" fill="url(#paint0_linear_2012_117)"/>
<rect x="82" y="71" width="188" height="8" fill="#FBFBFB"/>
<rect x="82" y="82" width="152" height="8" fill="#FBFBFB"/>
<rect x="82" y="93" width="181" height="8" fill="#FBFBFB"/>
<rect x="82" y="104" width="152" height="8" fill="#FBFBFB"/>
<defs>
<linearGradient id="paint0_linear_2012_117" x1="126.5" y1="115" x2="341" y2="160" gradientUnits="userSpaceOnUse">
<stop stop-color="#FBFBFB"/>
<stop offset="1" stop-color="#FBFBFB"/>
</linearGradient>
</defs>
</svg>
