<svg width="361" height="152" viewBox="0 0 361 152" fill="none" xmlns="http://www.w3.org/2000/svg">
<rect width="361" height="152" rx="10" fill="#FEFEFE"/>
<ellipse cx="30.5" cy="31.9914" rx="21.5" ry="21.9914" fill="#FBFBFB"/>
<path d="M27.1364 39.1599V24.6145H28.8977V37.5974H35.6591V39.1599H27.1364Z" fill="black"/>
<path d="M72.233 30V19.8182H73.4659V28.9062H78.1989V30H72.233ZM83.0511 30.1591C82.3617 30.1591 81.7569 29.995 81.2365 29.6669C80.7195 29.3388 80.3151 28.8797 80.0234 28.2898C79.7351 27.6998 79.5909 27.0104 79.5909 26.2216C79.5909 25.4261 79.7351 24.7318 80.0234 24.1385C80.3151 23.5452 80.7195 23.0845 81.2365 22.7564C81.7569 22.4283 82.3617 22.2642 83.0511 22.2642C83.7405 22.2642 84.3438 22.4283 84.8608 22.7564C85.3812 23.0845 85.7855 23.5452 86.0739 24.1385C86.3655 24.7318 86.5114 25.4261 86.5114 26.2216C86.5114 27.0104 86.3655 27.6998 86.0739 28.2898C85.7855 28.8797 85.3812 29.3388 84.8608 29.6669C84.3438 29.995 83.7405 30.1591 83.0511 30.1591ZM83.0511 29.1051C83.5748 29.1051 84.0057 28.9709 84.3438 28.7024C84.6818 28.4339 84.9321 28.081 85.0945 27.6435C85.2569 27.206 85.3381 26.732 85.3381 26.2216C85.3381 25.7112 85.2569 25.2356 85.0945 24.7947C84.9321 24.3539 84.6818 23.9976 84.3438 23.7259C84.0057 23.4541 83.5748 23.3182 83.0511 23.3182C82.5275 23.3182 82.0966 23.4541 81.7585 23.7259C81.4205 23.9976 81.1702 24.3539 81.0078 24.7947C80.8454 25.2356 80.7642 25.7112 80.7642 26.2216C80.7642 26.732 80.8454 27.206 81.0078 27.6435C81.1702 28.081 81.4205 28.4339 81.7585 28.7024C82.0966 28.9709 82.5275 29.1051 83.0511 29.1051ZM91.3848 33.0227C90.818 33.0227 90.3308 32.9498 89.9231 32.804C89.5154 32.6615 89.1757 32.4725 88.9039 32.2372C88.6355 32.0052 88.4217 31.7566 88.2626 31.4915L89.1973 30.8352C89.3033 30.9744 89.4376 31.1335 89.6 31.3125C89.7624 31.4948 89.9844 31.6522 90.2662 31.7848C90.5512 31.9207 90.9241 31.9886 91.3848 31.9886C92.0012 31.9886 92.51 31.8395 92.911 31.5412C93.3121 31.2429 93.5126 30.7756 93.5126 30.1392V28.5881H93.4132C93.327 28.7273 93.2044 28.8996 93.0453 29.1051C92.8895 29.3073 92.6641 29.4879 92.3691 29.647C92.0775 29.8028 91.6831 29.8807 91.1859 29.8807C90.5694 29.8807 90.0159 29.7348 89.5254 29.4432C89.0382 29.1515 88.652 28.7273 88.367 28.1705C88.0853 27.6136 87.9444 26.9375 87.9444 26.142C87.9444 25.3598 88.082 24.6787 88.3571 24.0987C88.6322 23.5154 89.015 23.0646 89.5055 22.7464C89.996 22.425 90.5628 22.2642 91.2058 22.2642C91.7029 22.2642 92.0974 22.3471 92.389 22.5128C92.684 22.6752 92.9094 22.8608 93.0652 23.0696C93.2243 23.2751 93.3469 23.4441 93.4331 23.5767H93.5524V22.3636H94.6859V30.2188C94.6859 30.875 94.5368 31.4086 94.2385 31.8196C93.9435 32.2339 93.5458 32.5372 93.0453 32.7294C92.5481 32.925 91.9946 33.0227 91.3848 33.0227ZM91.345 28.8267C91.8156 28.8267 92.2134 28.719 92.5382 28.5036C92.863 28.2881 93.1099 27.9782 93.2789 27.5739C93.448 27.1695 93.5325 26.6856 93.5325 26.1222C93.5325 25.572 93.4496 25.0864 93.2839 24.6655C93.1182 24.2446 92.8729 23.9148 92.5481 23.6761C92.2233 23.4375 91.8223 23.3182 91.345 23.3182C90.8478 23.3182 90.4335 23.4441 90.1021 23.696C89.774 23.9479 89.527 24.286 89.3613 24.7102C89.1989 25.1345 89.1177 25.6051 89.1177 26.1222C89.1177 26.6525 89.2006 27.1214 89.3663 27.5291C89.5353 27.9335 89.7839 28.2517 90.112 28.4837C90.4435 28.7124 90.8545 28.8267 91.345 28.8267ZM99.916 33.0227C99.3493 33.0227 98.862 32.9498 98.4544 32.804C98.0467 32.6615 97.707 32.4725 97.4352 32.2372C97.1667 32.0052 96.9529 31.7566 96.7939 31.4915L97.7285 30.8352C97.8346 30.9744 97.9688 31.1335 98.1312 31.3125C98.2936 31.4948 98.5157 31.6522 98.7974 31.7848C99.0824 31.9207 99.4553 31.9886 99.916 31.9886C100.532 31.9886 101.041 31.8395 101.442 31.5412C101.843 31.2429 102.044 30.7756 102.044 30.1392V28.5881H101.944C101.858 28.7273 101.736 28.8996 101.577 29.1051C101.421 29.3073 101.195 29.4879 100.9 29.647C100.609 29.8028 100.214 29.8807 99.7172 29.8807C99.1007 29.8807 98.5472 29.7348 98.0566 29.4432C97.5694 29.1515 97.1833 28.7273 96.8983 28.1705C96.6165 27.6136 96.4757 26.9375 96.4757 26.142C96.4757 25.3598 96.6132 24.6787 96.8883 24.0987C97.1634 23.5154 97.5462 23.0646 98.0368 22.7464C98.5273 22.425 99.094 22.2642 99.737 22.2642C100.234 22.2642 100.629 22.3471 100.92 22.5128C101.215 22.6752 101.441 22.8608 101.596 23.0696C101.756 23.2751 101.878 23.4441 101.964 23.5767H102.084V22.3636H103.217V30.2188C103.217 30.875 103.068 31.4086 102.77 31.8196C102.475 32.2339 102.077 32.5372 101.577 32.7294C101.079 32.925 100.526 33.0227 99.916 33.0227ZM99.8762 28.8267C100.347 28.8267 100.745 28.719 101.069 28.5036C101.394 28.2881 101.641 27.9782 101.81 27.5739C101.979 27.1695 102.064 26.6856 102.064 26.1222C102.064 25.572 101.981 25.0864 101.815 24.6655C101.649 24.2446 101.404 23.9148 101.079 23.6761C100.755 23.4375 100.354 23.3182 99.8762 23.3182C99.3791 23.3182 98.9648 23.4441 98.6333 23.696C98.3052 23.9479 98.0583 24.286 97.8926 24.7102C97.7302 25.1345 97.649 25.6051 97.649 26.1222C97.649 26.6525 97.7318 27.1214 97.8975 27.5291C98.0666 27.9335 98.3152 28.2517 98.6433 28.4837C98.9747 28.7124 99.3857 28.8267 99.8762 28.8267ZM105.365 30V22.3636H106.538V30H105.365ZM105.961 21.0909C105.733 21.0909 105.536 21.013 105.37 20.8572C105.207 20.7015 105.126 20.5142 105.126 20.2955C105.126 20.0767 105.207 19.8894 105.37 19.7337C105.536 19.5779 105.733 19.5 105.961 19.5C106.19 19.5 106.386 19.5779 106.548 19.7337C106.714 19.8894 106.797 20.0767 106.797 20.2955C106.797 20.5142 106.714 20.7015 106.548 20.8572C106.386 21.013 106.19 21.0909 105.961 21.0909ZM109.86 25.4062V30H108.687V22.3636H109.821V23.5568H109.92C110.099 23.169 110.371 22.8575 110.735 22.6222C111.1 22.3835 111.571 22.2642 112.147 22.2642C112.664 22.2642 113.117 22.3703 113.505 22.5824C113.892 22.7912 114.194 23.1094 114.409 23.5369C114.625 23.9612 114.733 24.4981 114.733 25.1477V30H113.559V25.2273C113.559 24.6274 113.404 24.16 113.092 23.8253C112.78 23.4872 112.353 23.3182 111.809 23.3182C111.435 23.3182 111.1 23.3994 110.805 23.5618C110.513 23.7242 110.283 23.9612 110.114 24.2727C109.945 24.5843 109.86 24.9621 109.86 25.4062ZM119.959 33.0227C119.392 33.0227 118.905 32.9498 118.497 32.804C118.09 32.6615 117.75 32.4725 117.478 32.2372C117.21 32.0052 116.996 31.7566 116.837 31.4915L117.771 30.8352C117.878 30.9744 118.012 31.1335 118.174 31.3125C118.337 31.4948 118.559 31.6522 118.84 31.7848C119.125 31.9207 119.498 31.9886 119.959 31.9886C120.575 31.9886 121.084 31.8395 121.485 31.5412C121.886 31.2429 122.087 30.7756 122.087 30.1392V28.5881H121.987C121.901 28.7273 121.779 28.8996 121.619 29.1051C121.464 29.3073 121.238 29.4879 120.943 29.647C120.652 29.8028 120.257 29.8807 119.76 29.8807C119.144 29.8807 118.59 29.7348 118.1 29.4432C117.612 29.1515 117.226 28.7273 116.941 28.1705C116.66 27.6136 116.519 26.9375 116.519 26.142C116.519 25.3598 116.656 24.6787 116.931 24.0987C117.206 23.5154 117.589 23.0646 118.08 22.7464C118.57 22.425 119.137 22.2642 119.78 22.2642C120.277 22.2642 120.672 22.3471 120.963 22.5128C121.258 22.6752 121.484 22.8608 121.639 23.0696C121.798 23.2751 121.921 23.4441 122.007 23.5767H122.127V22.3636H123.26V30.2188C123.26 30.875 123.111 31.4086 122.813 31.8196C122.518 32.2339 122.12 32.5372 121.619 32.7294C121.122 32.925 120.569 33.0227 119.959 33.0227ZM119.919 28.8267C120.39 28.8267 120.788 28.719 121.112 28.5036C121.437 28.2881 121.684 27.9782 121.853 27.5739C122.022 27.1695 122.107 26.6856 122.107 26.1222C122.107 25.572 122.024 25.0864 121.858 24.6655C121.692 24.2446 121.447 23.9148 121.122 23.6761C120.798 23.4375 120.396 23.3182 119.919 23.3182C119.422 23.3182 119.008 23.4441 118.676 23.696C118.348 23.9479 118.101 24.286 117.936 24.7102C117.773 25.1345 117.692 25.6051 117.692 26.1222C117.692 26.6525 117.775 27.1214 117.941 27.5291C118.11 27.9335 118.358 28.2517 118.686 28.4837C119.018 28.7124 119.429 28.8267 119.919 28.8267ZM129.504 30V19.8182H133.064C133.773 19.8182 134.358 19.9408 134.819 20.1861C135.28 20.428 135.623 20.7545 135.848 21.1655C136.074 21.5732 136.186 22.0256 136.186 22.5227C136.186 22.9602 136.108 23.3215 135.953 23.6065C135.8 23.8916 135.598 24.117 135.346 24.2827C135.097 24.4484 134.827 24.571 134.536 24.6506V24.75C134.847 24.7699 135.16 24.8793 135.475 25.0781C135.79 25.277 136.054 25.562 136.266 25.9332C136.478 26.3045 136.584 26.7585 136.584 27.2955C136.584 27.8059 136.468 28.2649 136.236 28.6726C136.004 29.0803 135.638 29.4034 135.137 29.642C134.637 29.8807 133.985 30 133.183 30H129.504ZM130.737 28.9062H133.183C133.989 28.9062 134.561 28.7505 134.899 28.4389C135.24 28.1241 135.411 27.7429 135.411 27.2955C135.411 26.9508 135.323 26.6326 135.147 26.3409C134.972 26.0459 134.721 25.8106 134.396 25.6349C134.072 25.456 133.687 25.3665 133.243 25.3665H130.737V28.9062ZM130.737 24.2926H133.024C133.396 24.2926 133.73 24.2197 134.029 24.0739C134.33 23.928 134.569 23.7225 134.744 23.4574C134.923 23.1922 135.013 22.8807 135.013 22.5227C135.013 22.0753 134.857 21.6958 134.546 21.3842C134.234 21.0694 133.74 20.9119 133.064 20.9119H130.737V24.2926ZM141.553 30.1591C140.864 30.1591 140.259 29.995 139.738 29.6669C139.221 29.3388 138.817 28.8797 138.525 28.2898C138.237 27.6998 138.093 27.0104 138.093 26.2216C138.093 25.4261 138.237 24.7318 138.525 24.1385C138.817 23.5452 139.221 23.0845 139.738 22.7564C140.259 22.4283 140.864 22.2642 141.553 22.2642C142.242 22.2642 142.846 22.4283 143.363 22.7564C143.883 23.0845 144.287 23.5452 144.576 24.1385C144.867 24.7318 145.013 25.4261 145.013 26.2216C145.013 27.0104 144.867 27.6998 144.576 28.2898C144.287 28.8797 143.883 29.3388 143.363 29.6669C142.846 29.995 142.242 30.1591 141.553 30.1591ZM141.553 29.1051C142.077 29.1051 142.508 28.9709 142.846 28.7024C143.184 28.4339 143.434 28.081 143.596 27.6435C143.759 27.206 143.84 26.732 143.84 26.2216C143.84 25.7112 143.759 25.2356 143.596 24.7947C143.434 24.3539 143.184 23.9976 142.846 23.7259C142.508 23.4541 142.077 23.3182 141.553 23.3182C141.029 23.3182 140.599 23.4541 140.26 23.7259C139.922 23.9976 139.672 24.3539 139.51 24.7947C139.347 25.2356 139.266 25.7112 139.266 26.2216C139.266 26.732 139.347 27.206 139.51 27.6435C139.672 28.081 139.922 28.4339 140.26 28.7024C140.599 28.9709 141.029 29.1051 141.553 29.1051ZM150.125 22.3636V23.358H146.168V22.3636H150.125ZM147.321 20.5341H148.495V27.8125C148.495 28.1439 148.543 28.3925 148.639 28.5582C148.738 28.7206 148.864 28.83 149.017 28.8864C149.172 28.9394 149.337 28.9659 149.509 28.9659C149.638 28.9659 149.744 28.9593 149.827 28.946C149.91 28.9295 149.976 28.9162 150.026 28.9062L150.265 29.9602C150.185 29.9901 150.074 30.0199 149.931 30.0497C149.789 30.0829 149.608 30.0994 149.39 30.0994C149.058 30.0994 148.733 30.0282 148.415 29.8857C148.1 29.7431 147.838 29.526 147.63 29.2344C147.424 28.9427 147.321 28.5748 147.321 28.1307V20.5341Z" fill="black"/>
<rect x="71" y="40" width="4" height="102" rx="2" fill="#F7F7F7"/>
<path d="M92.35 51.802H98.3V53.328H92.35V51.802ZM92.532 54.602H98.034V56.142H92.532V54.602ZM92.042 57.598H98.594V59.18H92.042V57.598ZM92.378 49.66L93.708 49.198C94.156 49.898 94.534 50.836 94.66 51.48L93.232 52.012C93.134 51.368 92.784 50.388 92.378 49.66ZM96.508 49.1L98.132 49.464C97.754 50.346 97.376 51.256 97.054 51.858L95.668 51.508C95.962 50.85 96.34 49.842 96.508 49.1ZM94.422 52.586H96.046V62.26H94.422V52.586ZM85.434 52.068H92.196V53.468H85.434V52.068ZM86.218 49.758H91.524V55.764H86.148V54.35H89.97V51.172H86.218V49.758ZM86.876 56.842H88.402V62.26H86.876V56.842ZM87.492 56.842H91.776V61.588H87.492V60.146H90.138V58.284H87.492V56.842ZM87.548 50.304L89.144 50.36C88.948 54.476 88.374 57.682 86.358 59.726C86.162 59.39 85.602 58.718 85.266 58.424C87.016 56.758 87.436 53.832 87.548 50.304ZM106.532 53.272H110.718V54.784H106.532V53.272ZM106.532 56.786H110.718V58.298H106.532V56.786ZM105.664 49.814H111.67V61.308H109.976V51.326H107.288V61.308H105.664V49.814ZM104.376 60.384H112.608V61.896H104.376V60.384ZM101.52 49.128L103.004 49.646C102.43 50.738 101.772 51.984 101.226 52.754L100.092 52.292C100.596 51.452 101.198 50.108 101.52 49.128ZM103.2 50.78L104.614 51.368C103.578 52.978 102.206 54.924 101.128 56.114L100.106 55.596C101.184 54.336 102.458 52.278 103.2 50.78ZM99.364 52.446L100.148 51.284C100.904 51.928 101.772 52.824 102.136 53.44L101.282 54.756C100.932 54.084 100.078 53.118 99.364 52.446ZM102.85 54.154L104.04 53.636C104.6 54.574 105.16 55.792 105.342 56.604L104.068 57.192C103.9 56.394 103.382 55.12 102.85 54.154ZM99.35 55.288C100.652 55.246 102.584 55.162 104.46 55.064V56.394C102.696 56.534 100.876 56.66 99.49 56.744L99.35 55.288ZM103.102 57.668L104.334 57.262C104.698 58.102 105.076 59.194 105.244 59.908L103.928 60.384C103.802 59.656 103.438 58.522 103.102 57.668ZM99.952 57.346L101.338 57.584C101.198 58.928 100.89 60.328 100.484 61.224C100.19 61.042 99.56 60.748 99.21 60.608C99.616 59.782 99.84 58.536 99.952 57.346ZM101.576 56.03H103.074V62.274H101.576V56.03ZM119.622 49.884H125.838V56.52H124.144V51.466H119.622V49.884ZM120.77 54.14H124.886V55.708H120.77V54.14ZM119.944 54.14H121.638V59.936C121.638 60.538 121.736 60.622 122.408 60.622C122.716 60.622 124.018 60.622 124.382 60.622C125.012 60.622 125.124 60.286 125.194 58.438C125.572 58.718 126.3 58.984 126.748 59.11C126.566 61.49 126.09 62.204 124.508 62.204C124.13 62.204 122.548 62.204 122.198 62.204C120.49 62.204 119.944 61.714 119.944 59.936V54.14ZM115.8 56.002H117.382V62.26H115.8V56.002ZM115.688 49.128L117.228 49.758C116.57 50.836 115.814 52.068 115.212 52.852L114.05 52.306C114.624 51.452 115.31 50.108 115.688 49.128ZM117.508 50.738L118.95 51.438C117.802 53.034 116.29 54.966 115.1 56.156L114.078 55.554C115.24 54.294 116.682 52.25 117.508 50.738ZM113.364 52.572L114.134 51.41C114.904 51.998 115.828 52.852 116.22 53.454L115.394 54.77C115.016 54.126 114.12 53.202 113.364 52.572ZM117.2 54.098L118.446 53.524C119.062 54.476 119.748 55.736 120.014 56.562L118.67 57.206C118.432 56.38 117.788 55.078 117.2 54.098ZM113.35 55.26C114.75 55.204 116.78 55.106 118.754 55.008L118.74 56.394C116.892 56.534 114.96 56.646 113.518 56.716L113.35 55.26ZM117.48 57.724L118.796 57.248C119.23 58.102 119.692 59.208 119.888 59.936L118.502 60.482C118.334 59.754 117.872 58.592 117.48 57.724ZM114.05 57.36L115.548 57.626C115.366 58.984 115.002 60.398 114.54 61.294C114.246 61.084 113.56 60.762 113.182 60.622C113.644 59.81 113.91 58.536 114.05 57.36ZM134.672 50.052H138.48V51.284H134.672V50.052ZM134.518 52.194H138.368V53.426H134.518V52.194ZM133.02 54.294H140.51V55.666H133.02V54.294ZM137.892 50.052H138.06L138.326 49.982L139.502 50.108C139.362 51.62 139.096 53.468 138.858 54.938L137.262 54.798C137.528 53.286 137.78 51.298 137.892 50.22V50.052ZM134.392 49.1L135.974 49.24C135.722 50.766 135.344 52.684 135.078 53.86L133.482 53.734C133.79 52.544 134.168 50.598 134.392 49.1ZM132.474 60.244C133.244 59.824 134.392 59.124 135.512 58.424L135.988 59.628C135.106 60.286 134.098 60.972 133.272 61.518L132.474 60.244ZM133.062 56.632L134.196 55.946C134.714 56.478 135.288 57.234 135.526 57.766L134.308 58.522C134.112 57.99 133.566 57.192 133.062 56.632ZM139.18 55.932L140.51 56.576C140.006 57.248 139.502 57.934 139.082 58.396L138.032 57.822C138.424 57.318 138.914 56.506 139.18 55.932ZM135.904 54.896H137.5V60.678C137.5 61.364 137.402 61.756 136.954 62.008C136.534 62.246 135.974 62.26 135.218 62.26C135.162 61.84 134.952 61.224 134.77 60.832C135.162 60.86 135.582 60.846 135.708 60.846C135.862 60.846 135.904 60.804 135.904 60.664V54.896ZM137.458 55.904C137.948 57.906 138.998 59.572 140.762 60.3C140.44 60.58 139.978 61.182 139.768 61.602C137.878 60.608 136.87 58.62 136.31 56.128L137.458 55.904ZM128.4 52.6H132.446V54H128.4V52.6ZM127.728 55.022H132.838V56.45H127.728V55.022ZM127.868 57.234L128.932 56.968C129.17 57.752 129.366 58.732 129.436 59.404L128.302 59.698C128.274 59.026 128.078 58.018 127.868 57.234ZM127.574 60.44C128.918 60.244 130.934 59.88 132.866 59.516L132.978 60.916C131.214 61.294 129.324 61.672 127.896 61.966L127.574 60.44ZM131.746 56.856L132.95 57.15C132.698 57.948 132.474 58.83 132.264 59.418L131.256 59.138C131.438 58.508 131.648 57.528 131.746 56.856ZM129.646 53.16H131.088V60.706L129.646 60.958V53.16ZM129.576 49.114H130.458V49.422H130.934V49.856C130.388 50.92 129.534 52.362 128.148 53.622C127.924 53.286 127.448 52.754 127.14 52.53C128.316 51.522 129.142 50.206 129.576 49.114ZM129.786 49.114H130.962C131.774 49.814 132.824 50.808 133.328 51.522L132.25 52.81C131.802 52.11 130.85 50.934 130.08 50.304H129.786V49.114Z" fill="black"/>
<rect x="85" y="94" width="267" height="8" fill="#F3F3F3"/>
<rect x="85" y="105" width="115" height="8" fill="#F3F3F3"/>
<rect x="111" y="83" width="241" height="8" fill="#F3F3F3"/>
<path d="M85.654 85.304H90.142V85.748H86.11V89.486H85.654V85.304ZM89.92 85.304H90.376V88.898C90.376 89.18 90.316 89.324 90.112 89.402C89.908 89.474 89.554 89.48 89.05 89.48C89.032 89.348 88.96 89.144 88.894 89.018C89.284 89.03 89.668 89.03 89.782 89.024C89.89 89.018 89.92 88.988 89.92 88.892V85.304ZM86.704 84.23H87.988V84.632H86.704V84.23ZM87.682 84.23H88.18C88.252 85.958 88.678 87.17 89.854 87.674C89.758 87.77 89.608 87.944 89.536 88.064C88.33 87.464 87.868 86.198 87.778 84.452H87.682V84.23ZM87.73 85.424L88.156 85.496C87.952 86.732 87.436 87.596 86.47 88.094C86.404 87.992 86.26 87.818 86.164 87.746C87.07 87.302 87.574 86.552 87.73 85.424ZM92.986 85.214L93.418 85.352C93.022 85.88 92.41 86.378 91.864 86.696C91.798 86.606 91.636 86.426 91.54 86.342C92.08 86.072 92.644 85.652 92.986 85.214ZM94.516 85.466L94.822 85.208C95.374 85.526 96.064 86.024 96.406 86.366L96.07 86.672C95.746 86.324 95.074 85.814 94.516 85.466ZM94.006 86.294C93.514 86.942 92.53 87.71 91.528 88.196C91.474 88.088 91.36 87.92 91.27 87.824C92.284 87.362 93.28 86.564 93.754 85.88H94.204C94.846 86.648 95.872 87.362 96.796 87.74C96.694 87.848 96.586 88.016 96.514 88.142C95.62 87.722 94.564 86.972 94.006 86.294ZM92.344 87.47H95.668V89.462H95.212V87.872H92.782V89.486H92.344V87.47ZM92.554 88.88H95.452V89.282H92.554V88.88ZM93.754 83.96H94.216V84.746H93.754V83.96ZM91.492 84.518H96.502V85.61H96.046V84.926H91.936V85.61H91.492V84.518Z" fill="black"/>
<rect x="111" y="72" width="31" height="8" rx="3" fill="#F3F3F3"/>
<path d="M115.983 77.767C115.693 77.767 115.437 77.7273 115.214 77.6477C114.992 77.5691 114.805 77.4531 114.653 77.2997C114.502 77.1463 114.387 76.9583 114.31 76.7358C114.232 76.5133 114.193 76.2585 114.193 75.9716C114.193 75.6941 114.232 75.446 114.311 75.2273C114.391 75.0085 114.506 74.8229 114.656 74.6705C114.808 74.517 114.991 74.4001 115.207 74.3196C115.424 74.2391 115.67 74.1989 115.943 74.1989C116.209 74.1989 116.442 74.2424 116.642 74.3295C116.843 74.4157 117.01 74.5327 117.145 74.6804C117.28 74.8272 117.382 74.9924 117.449 75.1761C117.517 75.3598 117.551 75.5492 117.551 75.7443C117.551 75.8816 117.545 76.0208 117.531 76.1619C117.518 76.303 117.49 76.4328 117.447 76.5511C117.405 76.6686 117.339 76.7633 117.25 76.8352C117.162 76.9072 117.043 76.9432 116.892 76.9432C116.826 76.9432 116.753 76.9328 116.673 76.9119C116.594 76.8911 116.523 76.8565 116.462 76.8082C116.4 76.7599 116.364 76.6951 116.352 76.6136H116.335C116.313 76.6686 116.277 76.7206 116.23 76.7699C116.184 76.8191 116.123 76.8584 116.047 76.8878C115.972 76.9171 115.881 76.9299 115.773 76.9261C115.65 76.9214 115.541 76.8939 115.447 76.8438C115.354 76.7926 115.275 76.7235 115.212 76.6364C115.149 76.5483 115.102 76.4465 115.07 76.331C115.038 76.2145 115.023 76.089 115.023 75.9545C115.023 75.8267 115.042 75.7098 115.08 75.6037C115.117 75.4976 115.17 75.4048 115.237 75.3253C115.305 75.2457 115.385 75.1823 115.476 75.1349C115.568 75.0866 115.667 75.0568 115.773 75.0455C115.867 75.036 115.954 75.0402 116.031 75.0582C116.109 75.0753 116.173 75.1013 116.223 75.1364C116.273 75.1705 116.305 75.2083 116.318 75.25H116.335V75.0909H116.636V76.375C116.636 76.4545 116.659 76.5246 116.703 76.5852C116.748 76.6458 116.813 76.6761 116.898 76.6761C116.994 76.6761 117.068 76.643 117.119 76.5767C117.171 76.5104 117.207 76.4081 117.226 76.2699C117.246 76.1316 117.256 75.9545 117.256 75.7386C117.256 75.6117 117.238 75.4867 117.203 75.3636C117.169 75.2396 117.117 75.1236 117.047 75.0156C116.978 74.9077 116.89 74.8125 116.784 74.7301C116.678 74.6477 116.554 74.5833 116.411 74.5369C116.268 74.4896 116.107 74.4659 115.926 74.4659C115.704 74.4659 115.504 74.5005 115.328 74.5696C115.153 74.6378 115.004 74.7377 114.881 74.8693C114.759 75 114.665 75.1591 114.601 75.3466C114.537 75.5331 114.506 75.7453 114.506 75.983C114.506 76.2244 114.537 76.4389 114.601 76.6264C114.665 76.8139 114.76 76.9721 114.885 77.1009C115.011 77.2296 115.167 77.3272 115.352 77.3935C115.538 77.4607 115.752 77.4943 115.994 77.4943C116.098 77.4943 116.201 77.4844 116.303 77.4645C116.404 77.4446 116.493 77.4228 116.571 77.3991C116.649 77.3755 116.705 77.358 116.739 77.3466L116.818 77.608C116.759 77.6326 116.683 77.6572 116.588 77.6818C116.494 77.7064 116.394 77.7268 116.287 77.7429C116.181 77.759 116.08 77.767 115.983 77.767ZM115.818 76.6364C115.945 76.6364 116.048 76.6108 116.126 76.5597C116.205 76.5085 116.262 76.4313 116.298 76.3281C116.334 76.2249 116.352 76.0947 116.352 75.9375C116.352 75.7784 116.332 75.6544 116.293 75.5653C116.253 75.4763 116.194 75.4138 116.116 75.3778C116.039 75.3419 115.943 75.3239 115.83 75.3239C115.722 75.3239 115.629 75.3523 115.553 75.4091C115.477 75.465 115.419 75.5398 115.378 75.6335C115.338 75.7263 115.318 75.8277 115.318 75.9375C115.318 76.0587 115.334 76.1728 115.366 76.2798C115.399 76.3859 115.451 76.4721 115.524 76.5384C115.597 76.6037 115.695 76.6364 115.818 76.6364Z" fill="#C5C5C5"/>
<path d="M87.568 75.048V75.426H90.028V75.048H87.568ZM87.568 74.4V74.772H90.028V74.4H87.568ZM87.154 74.118H90.46V75.714H87.154V74.118ZM86.86 76.104C87.712 76.104 89.038 76.08 90.292 76.05L90.28 76.374C89.062 76.41 87.784 76.452 86.902 76.47L86.86 76.104ZM89.536 75.774L89.842 75.594C90.184 75.834 90.598 76.188 90.796 76.428L90.472 76.632C90.28 76.392 89.878 76.026 89.536 75.774ZM88.564 73.008H89.002V76.236L88.564 76.272V73.008ZM86.74 76.788H90.76V77.154H86.74V76.788ZM89.476 76.272H89.914V78.006C89.914 78.252 89.86 78.366 89.674 78.426C89.488 78.492 89.188 78.486 88.726 78.486C88.702 78.372 88.642 78.216 88.588 78.102C88.954 78.114 89.26 78.114 89.362 78.102C89.452 78.102 89.476 78.078 89.476 78V76.272ZM87.382 77.364L87.712 77.154C87.994 77.382 88.324 77.712 88.486 77.934L88.132 78.18C87.988 77.952 87.664 77.604 87.382 77.364ZM86.908 73.428H90.7V73.776H86.908V73.428ZM86.584 72.984L87.01 73.116C86.614 74.136 85.996 75.15 85.348 75.822C85.3 75.72 85.174 75.48 85.09 75.378C85.684 74.796 86.248 73.896 86.584 72.984ZM85.96 74.532L86.38 74.106L86.392 74.112V78.474H85.96V74.532ZM92.908 75.342H96.694V75.756H92.908V75.342ZM93.1 74.106H96.514V74.508H93.1V74.106ZM94.516 74.292H94.966V75.192C94.966 75.942 94.762 76.926 93.25 77.604C93.19 77.508 93.052 77.352 92.95 77.274C94.408 76.686 94.516 75.804 94.516 75.186V74.292ZM95.092 75.606C95.32 76.446 95.848 77.004 96.706 77.25C96.604 77.34 96.478 77.514 96.418 77.634C95.512 77.316 94.966 76.668 94.702 75.69L95.092 75.606ZM92.566 75.33V77.454H92.128V75.75H91.288V75.33H92.566ZM92.566 77.256C92.848 77.7 93.382 77.904 94.072 77.934C94.726 77.958 96.076 77.94 96.784 77.892C96.736 78 96.658 78.216 96.64 78.354C95.98 78.378 94.738 78.39 94.072 78.366C93.292 78.336 92.752 78.126 92.368 77.652C92.08 77.91 91.774 78.168 91.45 78.432L91.21 77.97C91.498 77.778 91.852 77.514 92.158 77.256H92.566ZM91.354 73.38L91.684 73.11C92.08 73.362 92.536 73.752 92.74 74.046L92.386 74.34C92.194 74.052 91.744 73.644 91.354 73.38ZM95.728 72.96L96.184 73.116C95.98 73.458 95.734 73.854 95.536 74.106L95.17 73.968C95.356 73.698 95.602 73.266 95.728 72.96ZM93.334 73.14L93.718 72.984C93.958 73.272 94.192 73.668 94.276 73.944L93.868 74.124C93.79 73.854 93.568 73.44 93.334 73.14ZM97.324 74.892H102.67V75.294H97.324V74.892ZM97.852 73.716H101.326V74.118H97.852V73.716ZM98.824 76.902H101.65V77.262H98.824V76.902ZM98.824 77.898H101.65V78.288H98.824V77.898ZM99.394 72.96H99.832V75.108H99.394V72.96ZM102.022 73.17L102.406 73.374C101.2 74.952 99.394 76.134 97.474 76.872C97.42 76.77 97.276 76.584 97.186 76.494C99.124 75.822 100.912 74.658 102.022 73.17ZM98.578 75.93H101.938V78.462H101.47V76.308H99.028V78.486H98.578V75.93Z" fill="black"/>
<rect x="111" y="116" width="31" height="8" rx="3" fill="#F3F3F3"/>
<path d="M115.392 121L115.869 118.091H116.153L115.676 121H115.392ZM114.068 120.193L114.114 119.909H116.284L116.239 120.193H114.068ZM114.369 121L114.847 118.091H115.131L114.653 121H114.369ZM114.239 119.182L114.284 118.898H116.455L116.409 119.182H114.239Z" fill="#C5C5C5"/>
<path d="M86.752 117.716H87.892V118.1H86.752V117.716ZM85.24 118.772H88.042V119.18H85.24V118.772ZM86.536 116.99H86.938V118.976H86.536V116.99ZM85.666 117.434H86.038V119.042H85.666V117.434ZM87.424 120.368L87.814 120.488C87.472 121.502 86.722 122.15 85.564 122.504C85.522 122.384 85.414 122.234 85.312 122.138C86.398 121.856 87.106 121.274 87.424 120.368ZM87.268 119.528L87.616 119.408C87.802 119.708 88 120.11 88.078 120.362L87.712 120.512C87.64 120.254 87.454 119.834 87.268 119.528ZM86.536 119.06H86.938V120.632C86.938 120.83 86.908 120.938 86.764 121.004C86.632 121.064 86.428 121.064 86.128 121.064C86.116 120.956 86.062 120.806 86.014 120.698C86.218 120.704 86.404 120.704 86.458 120.698C86.518 120.692 86.536 120.68 86.536 120.626V119.06ZM85.768 119.42L86.164 119.51C86.038 119.984 85.81 120.47 85.57 120.782C85.486 120.722 85.312 120.62 85.21 120.578C85.456 120.284 85.654 119.846 85.768 119.42ZM87.994 117.242H90.724V117.632H87.994V117.242ZM88.582 119.486V120.062H90.178V119.486H88.582ZM88.582 120.404V120.992H90.178V120.404H88.582ZM88.582 118.568V119.144H90.178V118.568H88.582ZM88.18 118.214H90.586V121.346H88.18V118.214ZM89.158 117.434L89.632 117.494C89.536 117.836 89.434 118.208 89.338 118.46L88.966 118.382C89.032 118.118 89.122 117.71 89.158 117.434ZM88.72 121.448L89.116 121.676C88.81 121.988 88.306 122.312 87.874 122.498C87.808 122.408 87.67 122.282 87.568 122.204C88.006 122.03 88.492 121.712 88.72 121.448ZM89.56 121.7L89.902 121.478C90.226 121.694 90.646 122.018 90.85 122.246L90.502 122.492C90.304 122.27 89.89 121.934 89.56 121.7ZM92.866 117.728H96.682V118.106H92.866V117.728ZM94.504 117.896L95.008 117.938C94.912 118.244 94.798 118.574 94.708 118.79L94.336 118.718C94.396 118.484 94.474 118.13 94.504 117.896ZM95.548 116.96L96.004 117.074C95.836 117.35 95.656 117.644 95.5 117.842L95.122 117.74C95.266 117.524 95.452 117.188 95.548 116.96ZM93.502 117.116L93.856 116.978C94.042 117.176 94.228 117.458 94.294 117.656L93.928 117.818C93.862 117.62 93.682 117.326 93.502 117.116ZM92.566 119.33V121.454H92.128V119.75H91.288V119.33H92.566ZM92.566 121.256C92.848 121.7 93.382 121.904 94.072 121.934C94.726 121.958 96.076 121.94 96.784 121.892C96.736 122 96.658 122.216 96.64 122.354C95.98 122.378 94.738 122.39 94.072 122.366C93.292 122.336 92.752 122.126 92.368 121.652C92.08 121.91 91.774 122.168 91.45 122.432L91.21 121.97C91.498 121.778 91.852 121.514 92.158 121.256H92.566ZM91.354 117.38L91.684 117.11C92.08 117.362 92.53 117.752 92.74 118.046L92.386 118.34C92.194 118.052 91.744 117.644 91.354 117.38ZM93.766 119.756V120.254H95.764V119.756H93.766ZM93.766 120.584V121.088H95.764V120.584H93.766ZM93.766 118.928V119.426H95.764V118.928H93.766ZM93.34 118.58H96.208V121.436H93.34V118.58Z" fill="black"/>
<rect x="111" y="127" width="31" height="8" rx="3" fill="#F3F3F3"/>
<path d="M115.256 129.818V130.102H114.125V129.818H115.256ZM114.455 129.295H114.79V131.375C114.79 131.47 114.804 131.541 114.831 131.588C114.859 131.634 114.895 131.666 114.939 131.682C114.983 131.697 115.03 131.705 115.08 131.705C115.116 131.705 115.147 131.703 115.17 131.699C115.194 131.694 115.213 131.69 115.227 131.688L115.295 131.989C115.273 131.997 115.241 132.006 115.2 132.014C115.16 132.024 115.108 132.028 115.045 132.028C114.951 132.028 114.858 132.008 114.767 131.967C114.677 131.927 114.602 131.865 114.543 131.781C114.484 131.698 114.455 131.593 114.455 131.466V129.295ZM117.129 132.023C117.059 132.023 116.999 131.998 116.949 131.947C116.899 131.897 116.874 131.837 116.874 131.767C116.874 131.697 116.899 131.637 116.949 131.587C116.999 131.536 117.059 131.511 117.129 131.511C117.199 131.511 117.259 131.536 117.31 131.587C117.36 131.637 117.385 131.697 117.385 131.767C117.385 131.813 117.373 131.856 117.349 131.895C117.327 131.934 117.296 131.965 117.257 131.989C117.219 132.011 117.177 132.023 117.129 132.023ZM117.129 130.403C117.059 130.403 116.999 130.378 116.949 130.328C116.899 130.278 116.874 130.218 116.874 130.148C116.874 130.078 116.899 130.018 116.949 129.967C116.999 129.917 117.059 129.892 117.129 129.892C117.199 129.892 117.259 129.917 117.31 129.967C117.36 130.018 117.385 130.078 117.385 130.148C117.385 130.194 117.373 130.237 117.349 130.276C117.327 130.314 117.296 130.346 117.257 130.369C117.219 130.392 117.177 130.403 117.129 130.403Z" fill="#C5C5C5"/>
<path d="M87.526 128.68H90.526V129.076H87.526V128.68ZM87.268 129.844H90.784V130.246H87.268V129.844ZM87.298 130.93H90.718V131.332H87.298V130.93ZM88.786 127.96H89.23V130.09H88.786V127.96ZM89.578 130.186H90.016V132.946C90.016 133.204 89.956 133.336 89.77 133.402C89.584 133.468 89.278 133.474 88.798 133.474C88.78 133.354 88.708 133.174 88.642 133.054C89.014 133.066 89.35 133.066 89.446 133.06C89.548 133.054 89.578 133.03 89.578 132.94V130.186ZM87.664 131.752L88.024 131.536C88.336 131.848 88.672 132.274 88.816 132.568L88.426 132.808C88.294 132.514 87.97 132.064 87.664 131.752ZM85.666 128.356H87.166V132.298H85.666V131.89H86.746V128.764H85.666V128.356ZM85.684 130.102H86.944V130.504H85.684V130.102ZM85.45 128.356H85.876V132.79H85.45V128.356ZM93.082 131.638H94.9V131.986H93.082V131.638ZM93.064 130.732H95.11V132.922H93.064V132.574H94.684V131.086H93.064V130.732ZM92.866 130.732H93.28V133.228H92.866V130.732ZM91.762 129.07H93.43V129.4H91.762V129.07ZM94.528 129.07H96.226V129.4H94.528V129.07ZM96.04 128.218H96.49V132.886C96.49 133.174 96.424 133.324 96.232 133.402C96.04 133.474 95.716 133.48 95.212 133.48C95.194 133.354 95.122 133.144 95.056 133.018C95.422 133.036 95.788 133.03 95.896 133.024C96.004 133.024 96.04 132.988 96.04 132.886V128.218ZM91.798 128.218H93.718V130.282H91.798V129.934H93.292V128.566H91.798V128.218ZM96.262 128.218V128.566H94.69V129.946H96.262V130.288H94.258V128.218H96.262ZM91.54 128.218H91.984V133.486H91.54V128.218Z" fill="black"/>
</svg>
